<svg version="1.1" id="e3dff74e-4e90-4aad-b613-68e0f8bb10f3" xmlns="http://www.w3.org/2000/svg" x="0" y="0" viewBox="0 0 200 228.8" xml:space="preserve"><style>.st0{fill:#fff;fill-opacity:0}.st1{opacity:2.439000e-02;fill:#f5f4f6}.st1,.st2,.st3{enable-background:new}.st2{opacity:4.878000e-02;fill:#eeecef}.st3{opacity:7.317100e-02;fill:#e7e6ea}.st4{opacity:9.756100e-02;fill:#e2dfe5}.st4,.st5,.st6,.st7,.st8{enable-background:new}.st5{opacity:.122;fill:#dcd9e0}.st6{opacity:.1463;fill:#d6d3db}.st7{opacity:.1707;fill:#d1ced7}.st8{opacity:.1951;fill:#cbc8d2}.st10,.st11,.st12,.st9{enable-background:new}.st9{opacity:.2195;fill:#c6c3ce}.st10{opacity:.2439;fill:#c1beca}.st11{opacity:.2683;fill:#bcb9c6}.st12{opacity:.2927;fill:#b8b4c2}.st13{opacity:.3171;fill:#b3afbe}.st13,.st14,.st15,.st16{enable-background:new}.st14{opacity:.3415;fill:#aeaaba}.st15{opacity:.3659;fill:#aaa5b6}.st16{opacity:.3902;fill:#a5a0b2}.st17{opacity:.4146;fill:#a19caf}.st17,.st18,.st19,.st20{enable-background:new}.st18{opacity:.439;fill:#9d97ab}.st19{opacity:.4634;fill:#9893a8}.st20{opacity:.4878;fill:#948fa4}.st21{opacity:.5122;fill:#908aa1}.st21,.st22,.st23,.st24{enable-background:new}.st22{opacity:.5366;fill:#8c869d}.st23{opacity:.561;fill:#88829a}.st24{opacity:.5854;fill:#847f97}.st25{opacity:.6098;fill:#817b94}.st25,.st26,.st27,.st28{enable-background:new}.st26{opacity:.6341;fill:#7d7791}.st27{opacity:.6585;fill:#79748e}.st28{opacity:.6829;fill:#76708b}.st29{opacity:.7073;fill:#726d88}.st29,.st30,.st31,.st32{enable-background:new}.st30{opacity:.7317;fill:#6f6986}.st31{opacity:.7561;fill:#6b6683}.st32{opacity:.7805;fill:#686380}.st33{opacity:.8049;fill:#64607e}.st33,.st34,.st35,.st36{enable-background:new}.st34{opacity:.8293;fill:#615d7b}.st35{opacity:.8537;fill:#5d5a79}.st36{opacity:.878;fill:#5a5776}.st37{opacity:.9024;fill:#565474}.st37,.st38,.st39,.st40{enable-background:new}.st38{opacity:.9268;fill:#535172}.st39{opacity:.9512;fill:#4f4e6f}.st40{opacity:.9756;fill:#4c4b6d}.st41{fill:#49486b}.st43{fill:#fff}.st46{fill:#e3e7f3}.st47{fill:#d4daed}.st48{opacity:.79}.st49{fill:#ebeef6}.st50{fill:#dbe0f0}.st51{fill:#0073ec}.st53{fill:#65617e}.st55{fill:#373750}.st62{fill:#9aa7d5}.st65{fill:#f2b0b3}.st69{fill:#d3d8ea}</style><path id="eb512685-bdfd-40b7-956d-06b5d0fe1e45" class="st0" d="M131.6 106.8l67.3 38.5c1 .6 1.4 1.9.8 3-.2.3-.5.6-.8.8L94.1 209.6c-2.7 1.5-6 1.5-8.7 0l-67.3-38.5c-1-.6-1.4-1.9-.8-3 .2-.3.5-.6.8-.8l104.8-60.5c2.7-1.6 6-1.6 8.7 0z"/><path class="st1" d="M131.5 106.8l67.1 38.4c1 .6 1.4 1.9.8 3-.2.3-.5.6-.8.8L94.1 209.3c-2.7 1.5-6 1.5-8.6 0L18.3 171c-1-.6-1.4-1.9-.8-3 .2-.3.5-.6.8-.8l104.5-60.3c2.7-1.6 6-1.6 8.7-.1z"/><path class="st2" d="M131.4 106.9l66.9 38.3c1 .6 1.4 1.9.8 3-.2.3-.5.6-.8.8L94.2 209.1a8.78 8.78 0 01-8.6 0l-66.9-38.3c-1-.6-1.4-1.9-.8-3 .2-.3.5-.6.8-.8l104.2-60.2c2.6-1.4 5.9-1.4 8.5.1z"/><path class="st3" d="M131.4 107l66.7 38.1c1 .6 1.4 1.9.8 2.9-.2.3-.5.6-.8.8l-103.9 60a8.78 8.78 0 01-8.6 0l-66.7-38.2c-1-.6-1.4-1.9-.8-2.9.2-.3.5-.6.8-.8l103.9-60c2.6-1.5 5.9-1.4 8.6.1z"/><path class="st4" d="M131.3 107l66.5 38.1c1 .6 1.4 1.9.8 2.9-.2.3-.5.6-.8.8L94.3 208.6c-2.6 1.5-5.9 1.5-8.6 0l-66.5-38.1c-1-.6-1.4-1.9-.8-2.9.2-.3.5-.6.8-.8L122.7 107c2.7-1.5 5.9-1.5 8.6 0z"/><path class="st5" d="M131.2 107.1l66.3 37.9c1 .6 1.4 1.9.8 2.9-.2.3-.5.6-.8.8L94.3 208.3c-2.6 1.5-5.9 1.5-8.5 0l-66.3-37.9c-1-.6-1.4-1.9-.8-2.9.2-.3.5-.6.8-.8l103.3-59.6c2.5-1.5 5.8-1.5 8.4 0z"/><path class="st6" d="M131.1 107.2l66.1 37.8c1 .6 1.4 1.9.8 2.9-.2.3-.5.6-.8.8L94.3 208.1c-2.6 1.5-5.9 1.5-8.5 0l-66.1-37.8c-1-.6-1.4-1.9-.8-2.9.2-.3.5-.6.8-.8l102.9-59.4c2.7-1.5 5.9-1.5 8.5 0z"/><path class="st7" d="M131.1 107.2l65.9 37.7c1 .6 1.4 1.9.8 2.9-.2.3-.5.6-.8.8L94.4 207.8c-2.6 1.5-5.8 1.5-8.5 0L20 170.2c-1-.6-1.4-1.9-.8-2.9.2-.3.5-.6.8-.8l102.6-59.2c2.6-1.6 5.9-1.6 8.5-.1z"/><path class="st8" d="M131 107.3l65.7 37.5c1 .6 1.4 1.9.8 2.9-.2.3-.5.6-.8.8L94.4 207.6c-2.6 1.5-5.8 1.5-8.4 0L20.3 170c-1-.6-1.4-1.9-.8-2.9.2-.3.5-.6.8-.8l102.3-59.1c2.6-1.4 5.8-1.4 8.4.1z"/><path class="st9" d="M130.9 107.3l65.5 37.4c1 .6 1.4 1.9.8 2.9-.2.3-.5.6-.8.8l-102 58.9c-2.6 1.5-5.8 1.5-8.4 0l-65.5-37.4c-1-.6-1.4-1.9-.8-2.9.2-.3.5-.6.8-.8l102-58.8c2.6-1.5 5.8-1.5 8.4-.1z"/><path class="st10" d="M130.9 107.4l65.3 37.3c1 .6 1.4 1.9.8 2.9-.2.3-.5.6-.8.8L94.5 207.1c-2.6 1.5-5.8 1.5-8.4 0l-65.3-37.3c-1-.6-1.4-1.9-.8-2.9.2-.3.5-.6.8-.8l101.6-58.7c2.7-1.5 5.9-1.5 8.5 0z"/><path class="st11" d="M130.8 107.5l65.1 37.2c1 .6 1.4 1.9.8 2.9-.2.3-.5.6-.8.8L94.6 206.8c-2.6 1.5-5.8 1.5-8.4 0l-65.1-37.2c-1-.6-1.4-1.9-.8-2.9.2-.3.5-.6.8-.8l101.3-58.5c2.6-1.4 5.8-1.4 8.4.1z"/><path class="st12" d="M130.7 107.5l64.9 37.1c1 .6 1.4 1.8.8 2.9-.2.3-.5.6-.8.8l-101 58.3c-2.6 1.5-5.8 1.5-8.3 0l-64.9-37.1c-1-.6-1.4-1.8-.8-2.9.2-.3.5-.6.8-.8l101-58.3c2.6-1.4 5.7-1.4 8.3 0z"/><path class="st13" d="M130.6 107.6l64.7 37c1 .6 1.4 1.9.8 2.9-.2.3-.5.6-.8.8l-100.7 58c-2.6 1.5-5.7 1.5-8.3 0l-64.7-37c-1-.6-1.4-1.9-.8-2.9.2-.3.5-.6.8-.8l100.7-58.1c2.6-1.4 5.8-1.4 8.3.1z"/><path class="st14" d="M130.6 107.7l64.5 36.8c1 .6 1.4 1.8.8 2.9-.2.3-.5.6-.8.8L94.7 206c-2.6 1.5-5.7 1.5-8.3 0l-64.5-36.8c-1-.6-1.4-1.8-.8-2.9.2-.3.5-.6.8-.8l100.4-57.9c2.6-1.4 5.7-1.4 8.3.1z"/><path class="st15" d="M130.5 107.7l64.3 36.8c1 .6 1.4 1.8.8 2.8-.2.3-.5.6-.8.8l-100 57.8c-2.6 1.5-5.7 1.5-8.3 0l-64.3-36.7c-1-.6-1.4-1.8-.8-2.8.2-.3.5-.6.8-.8l100.1-57.8c2.5-1.5 5.7-1.5 8.2-.1z"/><path class="st16" d="M130.4 107.8l64.1 36.6c1 .6 1.3 1.8.8 2.8-.2.3-.5.6-.8.8l-99.8 57.6c-2.5 1.5-5.7 1.5-8.2 0L22.4 169c-1-.6-1.3-1.8-.8-2.8.2-.3.5-.6.8-.8l99.8-57.5c2.6-1.6 5.7-1.6 8.2-.1z"/><path class="st17" d="M130.4 107.8l63.9 36.5c1 .6 1.3 1.8.8 2.8-.2.3-.5.6-.8.8l-99.4 57.4c-2.5 1.5-5.7 1.5-8.2 0l-63.9-36.5c-1-.6-1.3-1.8-.8-2.8.2-.3.5-.6.8-.8l99.4-57.4c2.5-1.4 5.6-1.4 8.2 0z"/><path class="st18" d="M130.3 107.9l63.7 36.4c1 .6 1.3 1.8.8 2.8-.2.3-.5.6-.8.8l-99.2 57.2c-2.5 1.5-5.6 1.5-8.2 0L23 168.7c-1-.6-1.3-1.8-.8-2.8.2-.3.5-.6.8-.8l99.1-57.2c2.5-1.4 5.7-1.4 8.2 0z"/><path class="st19" d="M130.2 108l63.4 36.3c1 .6 1.3 1.8.8 2.8-.2.3-.4.6-.8.8l-98.8 57c-2.5 1.4-5.6 1.4-8.2 0l-63.4-36.3c-1-.6-1.3-1.8-.8-2.8.2-.3.4-.6.8-.8l98.8-57c2.6-1.4 5.7-1.4 8.2 0z"/><path class="st20" d="M130.2 108l63.2 36.2c1 .5 1.4 1.7.9 2.7-.2.4-.5.7-.9.9l-98.5 56.8c-2.5 1.4-5.6 1.4-8.1 0l-63.3-36.1c-1-.5-1.4-1.7-.9-2.7.2-.4.5-.7.9-.9L122 108c2.5-1.5 5.6-1.5 8.2 0z"/><path class="st21" d="M130.1 108.1l63 36.1c1 .5 1.4 1.7.9 2.7-.2.4-.5.7-.9.9L95 204.4c-2.5 1.4-5.6 1.4-8.1 0l-63-36.1c-1-.5-1.4-1.7-.9-2.7.2-.4.5-.7.9-.9L122 108c2.5-1.3 5.6-1.3 8.1.1z"/><path class="st22" d="M130 108.2l62.8 35.9c1 .5 1.4 1.7.8 2.7-.2.4-.5.7-.8.8L95 204.1c-2.5 1.4-5.6 1.4-8.1 0l-62.8-35.9c-1-.5-1.4-1.7-.8-2.7.2-.4.5-.7.8-.8l97.9-56.5c2.5-1.4 5.5-1.4 8 0z"/><path class="st23" d="M130 108.2l62.6 35.8c1 .5 1.3 1.7.8 2.7-.2.4-.5.6-.8.8l-97.5 56.3c-2.5 1.4-5.5 1.4-8 0L24.4 168c-1-.5-1.3-1.7-.8-2.7.2-.4.5-.6.8-.8l97.4-56.3c2.6-1.5 5.7-1.4 8.2 0z"/><path class="st24" d="M129.9 108.3l62.4 35.7c1 .5 1.3 1.7.8 2.7-.2.3-.5.6-.8.8l-97.2 56.1c-2.5 1.4-5.5 1.4-8 0l-62.4-35.7c-1-.5-1.3-1.7-.8-2.7.2-.3.5-.6.8-.8l97.2-56.1c2.5-1.4 5.5-1.4 8 0z"/><path class="st25" d="M129.8 108.3l62.2 35.6c1 .5 1.3 1.7.8 2.7-.2.3-.5.6-.8.8l-96.9 55.9c-2.5 1.4-5.5 1.4-8 0l-62.2-35.6c-1-.5-1.3-1.7-.8-2.7.2-.3.5-.6.8-.8l96.9-55.9c2.5-1.3 5.5-1.4 8 0z"/><path class="st26" d="M129.7 108.4l62 35.4c1 .5 1.3 1.8.8 2.7-.2.3-.4.6-.8.8L95.2 203c-2.5 1.4-5.5 1.4-8 0l-62-35.4c-1-.5-1.3-1.8-.8-2.7.2-.3.4-.6.8-.8l96.6-55.7c2.5-1.4 5.5-1.4 7.9 0z"/><path class="st27" d="M129.7 108.5l61.8 35.3c1 .5 1.3 1.8.8 2.7-.2.3-.4.6-.8.8l-96.2 55.6c-2.5 1.4-5.5 1.4-7.9 0l-61.8-35.3c-1-.5-1.3-1.8-.8-2.7.2-.3.4-.6.8-.8l96.2-55.5c2.4-1.5 5.4-1.5 7.9-.1z"/><path class="st28" d="M129.6 108.5l61.6 35.2c1 .5 1.3 1.8.7 2.7-.2.3-.4.6-.7.7l-95.9 55.3c-2.5 1.4-5.5 1.4-7.9 0l-61.6-35.2c-1-.5-1.3-1.8-.7-2.7.2-.3.4-.6.7-.7l95.9-55.3c2.4-1.4 5.4-1.4 7.9 0z"/><path class="st29" d="M129.5 108.6l61.4 35.1c1 .6 1.3 1.8.7 2.7-.2.3-.4.6-.7.7l-95.6 55.2c-2.4 1.4-5.4 1.4-7.9 0L26 167.2c-1-.6-1.3-1.8-.7-2.7.2-.3.4-.6.7-.7l95.6-55.2c2.4-1.4 5.5-1.4 7.9 0z"/><path class="st30" d="M129.5 108.7l61.2 35c1 .6 1.3 1.8.7 2.7-.2.3-.4.5-.7.7l-95.3 55c-2.4 1.4-5.4 1.4-7.9 0l-61.2-35c-1-.6-1.3-1.8-.7-2.7.2-.3.4-.5.7-.7l95.3-55c2.4-1.4 5.4-1.4 7.9 0z"/><path class="st31" d="M129.4 108.7l61 34.9c.9.6 1.3 1.8.7 2.7-.2.3-.4.5-.7.7l-95 54.8c-2.4 1.4-5.4 1.4-7.8 0l-61-34.8c-.9-.6-1.3-1.8-.7-2.7.2-.3.4-.5.7-.7l95-54.8c2.4-1.4 5.4-1.4 7.8-.1z"/><path class="st32" d="M129.3 108.8l60.8 34.8c.9.6 1.2 1.8.7 2.7-.2.3-.4.5-.7.7l-94.6 54.6c-2.4 1.4-5.4 1.4-7.8 0l-60.8-34.8c-.9-.6-1.3-1.8-.7-2.7.2-.3.4-.5.7-.7l94.6-54.6c2.4-1.4 5.4-1.4 7.8 0z"/><path class="st33" d="M129.3 108.8l60.6 34.6c.9.6 1.2 1.8.7 2.8-.2.3-.4.5-.7.7l-94.3 54.4c-2.4 1.4-5.4 1.4-7.8 0l-60.6-34.6c-.9-.6-1.2-1.8-.7-2.8.2-.3.4-.5.7-.7l94.3-54.4c2.4-1.3 5.3-1.3 7.8 0z"/><path class="st34" d="M129.2 108.9l60.4 34.6c.9.6 1.2 1.8.6 2.8-.2.3-.4.5-.6.6l-94 54.3c-2.4 1.4-5.4 1.4-7.8 0l-60.4-34.5c-.9-.6-1.2-1.8-.6-2.8.2-.3.4-.5.6-.6l94-54.3c2.4-1.5 5.4-1.5 7.8-.1z"/><path class="st35" d="M129.1 109l60.2 34.4c.9.6 1.2 1.8.6 2.8-.2.3-.4.5-.6.6l-93.7 54.1c-2.4 1.4-5.3 1.4-7.7 0l-60.1-34.3c-.9-.6-1.2-1.8-.6-2.8.2-.3.4-.5.6-.6l93.7-54.1c2.3-1.5 5.2-1.5 7.6-.1z"/><path class="st36" d="M129 109l60 34.3c.9.5 1.3 1.7.7 2.6-.2.3-.4.6-.7.7l-93.3 53.9c-2.4 1.4-5.3 1.4-7.7 0l-60-34.3c-.9-.5-1.3-1.7-.7-2.6.2-.3.4-.6.7-.7l93.3-53.9c2.4-1.4 5.3-1.4 7.7 0z"/><path class="st37" d="M129 109.1l59.8 34.1c.9.5 1.3 1.7.7 2.6-.2.3-.4.6-.7.7l-93 53.7c-2.4 1.4-5.3 1.4-7.7 0L28.3 166c-.9-.5-1.3-1.7-.7-2.6.2-.3.4-.6.7-.7l93-53.7c2.3-1.3 5.3-1.3 7.7.1z"/><path class="st38" d="M128.9 109.2l59.6 34c.9.5 1.3 1.7.7 2.6-.2.3-.4.6-.7.7L95.8 200c-2.4 1.4-5.3 1.4-7.7 0l-59.6-34c-.9-.5-1.3-1.7-.7-2.6.2-.3.4-.6.7-.7l92.7-53.5c2.4-1.4 5.3-1.4 7.7 0z"/><path class="st39" d="M128.8 109.2l59.3 33.9c.9.5 1.2 1.7.7 2.6-.2.3-.4.6-.7.7l-92.4 53.3c-2.4 1.4-5.3 1.4-7.6 0l-59.3-33.9c-.9-.5-1.2-1.7-.7-2.6.2-.3.4-.6.7-.7l92.4-53.3c2.4-1.3 5.3-1.3 7.6 0z"/><path class="st40" d="M128.8 109.3l59.1 33.8c.9.5 1.2 1.7.7 2.6-.2.3-.4.5-.7.7l-92 53.1c-2.4 1.4-5.2 1.4-7.6 0l-59.1-33.8c-.9-.5-1.2-1.7-.7-2.6.2-.3.4-.5.7-.7l92-53.1c2.3-1.4 5.2-1.4 7.6 0z"/><path id="_x35_d8de3c8-c05a-4c5f-97f6-122cac552419" class="st41" d="M128.7 109.3l58.9 33.7c.9.5 1.2 1.7.7 2.6-.2.3-.4.5-.7.7l-91.8 53c-2.3 1.3-5.2 1.3-7.6 0l-58.9-33.7c-.9-.5-1.2-1.7-.7-2.6.2-.3.4-.5.7-.7l91.8-53c2.4-1.3 5.2-1.3 7.6 0z"/><linearGradient id="_x30_843f2db-b48e-41ac-be50-dbedd2b6fa60_1_" gradientUnits="userSpaceOnUse" x1="-444.92" y1="659.05" x2="-337.89" y2="659.05" gradientTransform="matrix(-1 0 0 1 -319.44 -570)"><stop offset="0" stop-color="#ebe9eb"/><stop offset="1" stop-color="#9aa7d5"/></linearGradient><path id="_x30_843f2db-b48e-41ac-be50-dbedd2b6fa60" d="M20.7 77.3l101.7-58.7c1-.6 2.2-.2 2.8.8.2.3.3.7.3 1V97c0 1.6-.9 3.1-2.2 3.9L21.5 159.6c-1 .6-2.2.2-2.8-.8-.2-.3-.3-.7-.3-1V81.1c.1-1.6.9-3 2.3-3.8z" fill="url(#_x30_843f2db-b48e-41ac-be50-dbedd2b6fa60_1_)"/><path id="eed4b489-d152-414e-a821-fa0541459490" class="st41" d="M22 78.1l101.7-58.7c1-.6 2.2-.2 2.8.8.2.3.3.7.3 1v76.7c0 1.6-.9 3.1-2.2 3.9L22.9 160.5c-1 .6-2.2.2-2.8-.8-.2-.3-.3-.7-.3-1V82c0-1.6.8-3.1 2.2-3.9z"/><path id="_x39_37e6064-e4af-4f2a-b889-9658a16c68fa" class="st43" d="M25.8 83l95.7-55.6v70.1l-95.7 55.6z"/><linearGradient id="_x30_4f9dc7c-ac70-4b8c-a8a5-5583bd60da84_1_" gradientUnits="userSpaceOnUse" x1="-515.483" y1="724.339" x2="-340.822" y2="724.339" gradientTransform="matrix(-1 0 0 1 -319.44 -570)"><stop offset="0" stop-color="#fff"/><stop offset="1" stop-color="#9aa7d5"/></linearGradient><path id="_x30_4f9dc7c-ac70-4b8c-a8a5-5583bd60da84" d="M130.9 105.4l65.1 34.4s.4 5.1-1 5.9l-99.8 57.6c-2.5 1.5-5.7 1.5-8.2 0l-64.1-36.6c-2.6-1.6-1-5.9-1-5.9l100.8-55.3c2.5-1.6 5.6-1.6 8.2-.1z" fill="url(#_x30_4f9dc7c-ac70-4b8c-a8a5-5583bd60da84_1_)"/><path id="_x30_35cc810-4337-4812-93f3-75ba58b38203" d="M130.9 101.5l64.1 36.6c1 .6 1.3 1.8.8 2.8-.2.3-.5.6-.8.8l-99.8 57.6c-2.5 1.5-5.7 1.5-8.2 0l-64.1-36.6c-1-.6-1.3-1.8-.8-2.8.2-.3.5-.6.8-.8l99.8-57.6c2.5-1.5 5.6-1.5 8.2 0z" fill="#f7f7f7"/><path id="_x37_de96211-b0cf-4f0e-97ef-c9308f590683" class="st46" d="M136.6 148.9l16.9 9.7c.3.1.4.5.3.7l-.3.3-26.3 15.2c-.7.4-1.5.4-2.2 0l-16.9-9.8c-.3-.1-.4-.5-.3-.7l.3-.3 26.3-15.2c.7-.3 1.5-.3 2.2.1z"/><path id="_x39_011cbc7-c849-4b85-ba92-1237f5a8a84a" class="st47" d="M123.9 107.1l-5.5 3.2c-.2.1-.2.3-.1.5l.1.1 2.7 1.6c.2.1.5.1.7 0l5.5-3.2c.2-.1.2-.3.1-.5l-.1-.1-2.7-1.6c-.3-.1-.5-.1-.7 0z"/><path id="_x33_8fb8ff4-ebd9-4d75-ae68-fdb0e03bca4a" class="st47" d="M115.8 111.9l-5.5 3.2c-.2.1-.2.3-.1.5l.1.1 2.7 1.6c.2.1.5.1.7 0l5.5-3.2c.2-.1.2-.3.1-.5l-.1-.1-2.7-1.6c-.2-.1-.5-.1-.7 0z"/><path id="_x32_feef79c-3310-4ebf-8b6e-0112949aa9e9" class="st47" d="M107.7 116.4l-5.5 3.2c-.2.1-.2.3-.1.5l.1.1 2.7 1.6c.2.1.5.1.7 0l5.5-3.2c.2-.1.2-.3.1-.5l-.1-.1-2.7-1.6c-.3-.1-.5-.1-.7 0z"/><path id="_x35_423e84d-3b18-4abb-b56a-3c65410d6813" class="st47" d="M99.3 121.2l-5.5 3.2c-.2.1-.2.3-.1.5l.1.1 2.7 1.6c.2.1.5.1.7 0l5.5-3.2c.2-.1.2-.3.1-.5l-.1-.1-2.7-1.6c-.2-.2-.5-.2-.7 0z"/><path id="b07d86a5-dc1d-4a50-b5a0-3576ff16448c" class="st47" d="M91.2 125.7l-5.5 3.2c-.2.1-.2.3-.1.5l.1.1 2.8 1.6c.2.1.5.1.7 0l5.5-3.2c.2-.1.2-.3.1-.5l-.1-.1-2.7-1.6c-.2-.2-.5-.2-.8 0z"/><path id="b31e0467-125b-449a-8e03-6d4591dfc0a8" class="st47" d="M83.4 130.4l-5.5 3.2c-.2.1-.2.3-.1.5l.1.1 2.7 1.6c.2.1.5.1.7 0l5.5-3.2c.2-.1.2-.3.1-.5l-.1-.1-2.7-1.6c-.2-.1-.5-.1-.7 0z"/><path id="_x34_1b4ea99-281d-480c-bf4f-9430c03918a0" class="st47" d="M75.3 135l-5.5 3.2c-.2.1-.2.3-.1.5l.1.1 2.7 1.6c.2.1.5.1.7 0l5.5-3.2c.2-.1.2-.3.1-.5l-.1-.1L76 135c-.2-.1-.5-.1-.7 0z"/><path id="_x33_6bc7675-ce32-4ed7-b21f-e5c4d1401ae9" class="st47" d="M67.2 139.8l-5.5 3.2c-.2.1-.2.3-.1.5l.1.1 2.7 1.6c.2.1.5.1.7 0l5.5-3.2c.2-.1.2-.3.1-.5l-.1-.1-2.7-1.6c-.2-.1-.5-.1-.7 0z"/><path id="_x38_f2f1d2b-7c4c-4d43-8e53-be05483f738a" class="st47" d="M59.3 144.5l-5.5 3.2c-.2.1-.2.3-.1.5l.1.1 2.7 1.6c.2.1.5.1.7 0l5.5-3.2c.2-.1.2-.3.1-.5l-.1-.1-2.7-1.6c-.2-.2-.5-.2-.7 0z"/><path id="_x30_da8d8d4-074f-4048-8367-023ff1644e1f" class="st47" d="M50.9 149.3l-5.5 3.2c-.2.1-.2.3-.1.5l.1.1 2.7 1.6c.2.1.5.1.7 0l5.5-3.2c.2-.1.2-.3.1-.5l-.1-.1-2.7-1.6c-.2-.2-.5-.2-.7 0z"/><path id="_x37_3a2a80a-b71f-4158-8335-9d53c5737451" class="st47" d="M42.8 153.8l-5.5 3.2c-.2.1-.2.3-.1.5l.1.1 2.7 1.6c.2.1.5.1.7 0l5.5-3.1c.2-.1.2-.3.1-.5l-.1-.1-2.7-1.6c-.2-.2-.5-.2-.7-.1z"/><g id="cb66284d-fe0c-46c5-9dcc-c28fe8dbd2ab"><path id="_x37_d11843e-8b26-4806-987d-d2ea7fe80ecd" class="st47" d="M135.1 113.1l-3.7-2.2c-.5-.3-1.1-.3-1.6 0l-3.6 2.1c-.4.2-.5.7-.3 1.1l.3.3 3.6 2.2c.5.3 1.1.3 1.6 0l3.7-2.1c.4-.2.5-.7.3-1.1-.1-.2-.2-.3-.3-.3z"/><path id="ebc04984-0c3c-4ef2-ac87-5d2ce2f39cee" class="st47" d="M126.7 117.9l-3.7-2.2c-.5-.3-1.1-.3-1.6 0l-3.7 2.1c-.4.2-.5.7-.3 1.1l.3.3 3.6 2.3c.5.3 1.1.3 1.6 0l3.8-2.2c.4-.2.5-.7.3-1.1 0-.1-.1-.2-.3-.3z"/><path id="_x32_bea541f-63cd-4ec0-99e5-ec310592d0a2" class="st47" d="M118.6 122.4l-3.7-2.2c-.5-.3-1.1-.3-1.6 0l-3.7 2.1c-.4.2-.5.7-.3 1.1l.3.3 3.6 2.2c.5.3 1.1.3 1.6 0l3.8-2.2c.4-.2.5-.7.3-1.1 0 0-.1-.1-.3-.2z"/><path id="c32775e4-e20b-4c1d-bdd4-137a02de74c1" class="st47" d="M109.9 127.2l-3.7-2.2c-.5-.3-1.1-.3-1.6 0l-3.6 2.1c-.4.2-.5.7-.3 1.1l.3.3 3.6 2.2c.5.3 1.1.3 1.6 0l3.8-2.1c.4-.2.5-.7.3-1.1-.1-.2-.2-.3-.4-.3z"/><path id="_x30_f216867-31e1-4fd5-bbd7-3e7159d230da" class="st47" d="M102.3 131.7l-3.7-2.2c-.5-.3-1.1-.3-1.6 0l-3.7 2.1c-.4.2-.5.7-.3 1.1l.3.3 3.7 2.2c.5.3 1.1.3 1.6 0l3.8-2.1c.4-.2.5-.7.3-1.1-.2-.2-.2-.3-.4-.3z"/><path id="ef241515-9281-422c-b27a-18406f48e184" class="st47" d="M94.6 136.4l-3.7-2.2c-.5-.3-1.1-.3-1.6 0l-3.7 2.1c-.4.2-.5.7-.3 1.1l.3.3 3.6 2.2c.5.3 1.1.3 1.6 0l3.8-2.1c.4-.2.5-.7.3-1.1l-.3-.3z"/><path id="c6c961b0-7662-4f89-8030-dee4f9e8b963" class="st47" d="M86.3 141l-3.7-2.2c-.5-.3-1.1-.3-1.6 0l-3.7 2.1c-.4.2-.5.7-.3 1.1l.3.3 3.6 2.2c.5.3 1.1.3 1.6 0l3.8-2.1c.4-.2.5-.7.3-1.1l-.3-.3z"/><path id="eff9ec44-5308-4918-9472-c730ee06f43e" class="st47" d="M78.2 145.6l-3.7-2.2c-.5-.3-1.1-.3-1.6 0l-3.7 2.1c-.4.2-.5.7-.3 1.1l.3.3 3.6 2.2c.5.3 1.1.3 1.6 0l3.8-2.1c.4-.2.5-.7.2-1.1-.1-.2-.2-.3-.2-.3z"/><path id="_x34_c70ac63-9f98-4b68-8671-6ca08d263055" class="st47" d="M70.2 150.5l-3.7-2.2c-.5-.3-1.1-.3-1.6 0l-3.7 2.1c-.4.2-.5.7-.3 1.1l.3.3 3.6 2.3c.5.3 1.1.3 1.6 0l3.8-2.1c.4-.2.5-.7.3-1.1-.1-.2-.1-.3-.3-.4z"/><path id="_x34_0154a9a-68e0-4bb0-98e9-278ce9a45a91" class="st47" d="M61.5 155.6l-3.8-2.2c-.5-.3-1.1-.3-1.6 0l-3.7 2.1c-.4.2-.5.7-.3 1.1l.3.3 3.6 2.2c.5.3 1.1.3 1.6 0l3.8-2.1c.4-.2.5-.7.3-1.1 0-.2-.1-.3-.2-.3z"/><path id="_x33_93a4c53-bb4b-48be-8916-99553612e2ed" class="st47" d="M53.7 159.8l-3.7-2.2c-.5-.3-1.1-.3-1.6 0l-3.7 2.1c-.4.2-.5.7-.3 1.1l.3.3 3.6 2.2c.5.3 1.1.3 1.6 0l3.8-2.1c.4-.2.5-.7.3-1.1 0-.1-.1-.2-.3-.3z"/></g><g id="d608722f-943f-4515-84ce-3deaf033875b"><path id="afa839d6-ff22-4a02-930e-87448514ed96" class="st47" d="M143.4 117.6l-3.8-2.2c-.5-.3-1.1-.3-1.6 0l-3.7 2.1c-.4.2-.5.7-.3 1.1l.3.3 3.6 2.2c.5.3 1.1.3 1.6 0l3.8-2.2c.4-.2.5-.7.3-1.1l-.2-.2z"/><path id="_x36_ca8b0e8-7234-4382-90a3-594a9501eadf" class="st47" d="M135.1 122.4l-3.8-2.2c-.5-.3-1.1-.3-1.6 0l-3.7 2.1c-.4.2-.5.7-.3 1.1l.3.3 3.6 2.2c.5.3 1.1.3 1.6 0l3.8-2.2c.4-.2.5-.7.3-1.1l-.2-.2z"/><path id="f17d676c-03ce-4093-a1c3-beba2dd3410b" class="st47" d="M126.9 127l-3.8-2.2c-.5-.3-1.1-.3-1.6 0l-3.7 2.1c-.4.2-.5.7-.3 1.1l.3.3 3.7 2.2c.5.3 1.1.3 1.6 0l3.7-2.1c.4-.2.5-.7.3-1.1 0-.1-.1-.2-.2-.3z"/><path id="f1b332f5-c643-48ce-b5f6-323d5291442a" class="st47" d="M118.3 131.7l-3.7-2.2c-.5-.3-1.1-.3-1.6 0l-3.7 2.1c-.4.2-.5.7-.3 1.1l.3.3 3.6 2.2c.5.3 1.1.3 1.6 0l3.8-2.2c.4-.2.5-.7.3-1.1-.2 0-.2-.1-.3-.2z"/><path id="_x37_d26c1f0-fda5-49b4-94dd-2583f168655e" class="st47" d="M110.6 136.2l-3.8-2.2c-.5-.3-1.1-.3-1.6 0l-3.7 2.1c-.4.2-.5.7-.3 1.1l.3.3 3.6 2.2c.5.3 1.1.3 1.6 0l3.8-2.1c.4-.2.5-.7.3-1.1 0-.2-.1-.3-.2-.3z"/><path id="e2cfffbe-343d-4a11-a6a5-fe6e9dd20052" class="st47" d="M102.8 141l-3.7-2.2c-.5-.3-1.1-.3-1.6 0l-3.7 2.1c-.4.2-.5.7-.3 1.1l.3.3 3.7 2.2c.5.3 1.1.3 1.6 0l3.7-2.1c.4-.2.5-.7.3-1.1 0-.1-.1-.2-.3-.3z"/><path id="f136e748-4877-429c-9a9e-a3708c22db47" class="st47" d="M94.6 145.5l-3.7-2.2c-.5-.3-1.1-.3-1.6 0l-3.7 2.1c-.4.2-.5.7-.3 1.1l.3.3 3.6 2.3c.5.3 1.1.3 1.6 0l3.8-2.1c.4-.2.5-.7.3-1.1-.1-.2-.1-.3-.3-.4z"/><path id="_x31_35ca5fe-c248-4d63-935e-41949b882cf4" class="st47" d="M86.5 150.1l-3.7-2.2c-.5-.3-1.1-.3-1.6 0l-3.7 2.1c-.4.2-.5.7-.3 1.1l.3.3 3.6 2.2c.5.3 1.1.3 1.6 0l3.7-2.1c.4-.2.5-.7.3-1.1.1-.1 0-.2-.2-.3z"/><path id="db2c74ef-8ddd-4458-b548-83c63b785a97" class="st47" d="M78.6 155l-3.7-2.2c-.5-.3-1.1-.3-1.6 0l-3.7 2.1c-.4.2-.5.7-.3 1.1l.3.3 3.6 2.2c.5.3 1.1.3 1.6 0l3.8-2.1c.4-.2.5-.7.3-1.1l-.3-.3z"/><path id="da44b117-dd88-454f-8952-f8e3ba3dad58" class="st47" d="M69.9 160.1l-3.7-2.2c-.5-.3-1.1-.3-1.6 0l-3.7 2.1c-.4.2-.5.7-.3 1.1l.3.3 3.6 2.2c.5.3 1.1.3 1.6 0l3.7-2.1c.4-.2.5-.7.3-1 .1-.2-.1-.3-.2-.4z"/><path id="b3aef0b0-b6dc-4152-b2bd-d80fa5420c3d" class="st47" d="M62 164.4l-3.7-2.2c-.5-.3-1.1-.3-1.6 0l-3.7 2.1c-.4.2-.5.7-.3 1.1l.3.3 3.6 2.2c.5.3 1.1.3 1.6 0l3.8-2.1c.4-.2.5-.7.3-1.1-.1-.2-.2-.3-.3-.3z"/></g><g id="_x32_8ac37e7-bdbe-4dad-bd60-dec8250dbf62"><path id="a4a680d6-c2d2-4046-abb9-09b1a812e1a8" class="st47" d="M151.8 122.1l-3.8-2.2c-.5-.3-1.1-.3-1.6 0l-3.7 2.1c-.4.2-.5.7-.3 1.1l.3.3 3.6 2.2c.5.3 1.1.3 1.6 0l3.8-2.2c.4-.2.5-.7.3-1.1l-.2-.2z"/><path id="_x35_1574327-6976-408c-bcc1-68a5c8f69902" class="st47" d="M143.4 127l-3.7-2.2c-.5-.3-1.1-.3-1.6 0l-3.7 2.1c-.4.2-.5.7-.3 1.1l.3.3 3.6 2.2c.5.3 1.1.3 1.6 0l3.8-2.1c.4-.2.5-.7.2-1.1 0-.2-.1-.2-.2-.3z"/><path id="cd8c1980-fb8e-407d-b803-fb1ddcd49813" class="st47" d="M135.3 131.5l-3.7-2.2c-.5-.3-1.1-.3-1.6 0l-3.7 2.1c-.4.2-.5.7-.3 1.1l.3.3 3.6 2.2c.5.3 1.1.3 1.6 0l3.8-2.1c.4-.2.5-.7.3-1.1-.2-.1-.3-.2-.3-.3z"/><path id="f12c053a-0c73-46fe-bba7-ef8df9877fc6" class="st47" d="M126.6 136.2l-3.7-2.2c-.5-.3-1.1-.3-1.6 0l-3.7 2.1c-.4.2-.5.7-.3 1.1l.3.3 3.6 2.2c.5.3 1.1.3 1.6 0l3.8-2.1c.4-.2.5-.7.3-1.1-.1-.2-.1-.2-.3-.3z"/><path id="_x38_e33cf65-b8de-4d8e-8ee3-868c92b7bf91" class="st47" d="M119 140.7l-3.7-2.2c-.5-.3-1.1-.3-1.6 0l-3.7 2.1c-.4.2-.5.7-.3 1.1l.3.3 3.6 2.2c.5.3 1.1.3 1.6 0l3.7-2.1c.4-.2.5-.7.3-1.1 0-.1-.1-.2-.2-.3z"/><path id="_x31_b773f61-0428-4091-9c02-d2fa7523e27d" class="st47" d="M111.2 145.5l-3.7-2.2c-.5-.3-1.1-.3-1.6 0l-3.7 2.2c-.4.2-.5.7-.3 1.1l.3.3 3.6 2.2c.5.3 1.1.3 1.6 0l3.8-2.2c.4-.2.5-.7.3-1.1-.1-.2-.2-.3-.3-.3z"/><path id="_x34_331dfaa-72ae-4ea9-b6e1-d13bc77c2fca" class="st47" d="M103 150l-3.7-2.2c-.5-.3-1.1-.3-1.6 0L94 150c-.4.2-.5.7-.3 1.1l.3.3 3.6 2.2c.5.3 1.1.3 1.6 0l3.8-2.2c.3-.3.4-.7.2-1.1-.1-.1-.1-.2-.2-.3z"/><path id="_x37_069aaca-46c4-4ec2-8dc1-22ad499f5a44" class="st47" d="M94.8 154.6l-3.7-2.2c-.5-.3-1.1-.3-1.6 0l-3.7 2.1c-.4.2-.5.7-.3 1.1l.3.3 3.6 2.2c.5.3 1.1.3 1.6 0l3.7-2.1c.4-.2.5-.7.3-1.1 0-.1 0-.2-.2-.3z"/><path id="_x37_c1d88d0-5fc5-4bf2-ada3-bff28c09c5c3" class="st47" d="M86.9 159.5l-3.7-2.2c-.5-.3-1.1-.3-1.6 0l-3.7 2.1c-.4.2-.5.7-.3 1.1l.3.3 3.7 2.3c.5.3 1.1.3 1.6 0L87 161c.4-.2.5-.7.3-1.1l-.4-.4z"/><path id="_x34_37feeeb-8900-4826-87a7-7e5f35e14dfc" class="st47" d="M78.2 164.6l-3.7-2.2c-.5-.3-1.1-.3-1.6 0l-3.7 2.1c-.4.2-.5.7-.3 1.1l.3.3 3.6 2.2c.5.3 1.1.3 1.6 0l3.8-2.1c.4-.2.5-.7.3-1.1l-.3-.3z"/><path id="b987d12e-8394-4799-9208-ad61307291b2" class="st47" d="M70.4 168.9l-3.7-2.2c-.5-.3-1.1-.3-1.6 0l-3.7 2.1c-.4.2-.5.7-.3 1.1l.3.3 3.6 2.2c.5.3 1.1.3 1.6 0l3.8-2.1c.4-.2.5-.7.3-1.1-.1-.2-.2-.2-.3-.3z"/></g><g id="_x31_ff0aff5-dab8-4b4e-935f-3a43e46e1690"><path id="_x33_15cc6ca-a3cb-4aea-9a51-a5d29930f47d" class="st47" d="M160.1 126.7l-3.7-2.2c-.5-.3-1.1-.3-1.6 0l-3.7 2.1c-.4.2-.5.7-.3 1.1l.3.3 3.6 2.2c.5.3 1.1.3 1.6 0l3.8-2.1c.4-.2.5-.7.3-1.1-.1-.2-.2-.3-.3-.3z"/><path id="_x31_bf098a7-8a16-4803-a837-07988854c0cf" class="st47" d="M151.7 131.5l-3.7-2.2c-.5-.3-1.1-.3-1.6 0l-3.7 2.1c-.4.2-.5.7-.3 1.1l.3.3 3.6 2.2c.5.3 1.1.3 1.6 0l3.8-2.1c.4-.2.5-.7.3-1.1 0-.1-.1-.2-.3-.3z"/><path id="b3292542-e01d-46c7-ac86-d408fb3fa8ed" class="st47" d="M143.6 136.1l-3.7-2.2c-.5-.3-1.1-.3-1.6 0l-3.7 2.1c-.4.2-.5.7-.3 1.1l.3.3 3.6 2.2c.5.3 1.1.3 1.6 0l3.7-2.1c.4-.2.5-.7.3-1 .1-.2-.1-.3-.2-.4z"/><path id="_x35_2f86bbe-262f-4fda-bb3a-5c01a94a5840" class="st47" d="M134.9 140.8l-3.7-2.2c-.5-.3-1.1-.3-1.6 0l-3.7 2.1c-.4.2-.5.7-.3 1.1l.3.3 3.6 2.2c.5.3 1.1.3 1.6 0l3.7-2.1c.4-.2.5-.7.3-1.1 0-.2-.1-.3-.2-.3z"/><path id="e0bb4cac-acea-47ee-8461-4786a8911c6b" class="st47" d="M126.6 145.8l-3.7-2.2c-.5-.3-1.1-.3-1.6 0l-19 11c-.4.2-.5.7-.3 1.1l.3.3 3.6 2.2c.5.3 1.1.3 1.6 0l19.1-11c.4-.2.5-.7.3-1.1-.1-.2-.2-.3-.3-.3z"/><path id="_x35_16f566c-b9ce-487f-b0e4-15404334da82" class="st47" d="M103.2 159.2l-3.7-2.2c-.5-.3-1.1-.3-1.6 0l-3.7 2.1c-.4.2-.5.7-.3 1.1l.3.3 3.6 2.2c.5.3 1.1.3 1.6 0l3.8-2.2c.4-.2.5-.7.2-1.1 0-.1-.1-.1-.2-.2z"/><path id="d0cca5b2-6a26-4033-b661-e321d40850e0" class="st47" d="M95.2 164.1l-3.7-2.2c-.5-.3-1.1-.3-1.6 0l-3.7 2.1c-.4.2-.5.7-.3 1.1l.3.3 3.6 2.2c.5.3 1.1.3 1.6 0l3.8-2.1c.4-.2.4-.7.2-1.1 0-.2-.1-.3-.2-.3z"/><path id="d4a563c5-4697-40e2-a8c2-eddc9027cf04" class="st47" d="M86.6 169.2l-3.7-2.2c-.5-.3-1.1-.3-1.6 0l-3.7 2.1c-.4.2-.5.7-.3 1.1l.3.3 3.6 2.2c.5.3 1.1.3 1.6 0l3.7-2.1c.4-.2.5-.7.3-1.1 0-.2-.1-.2-.2-.3z"/><path id="_x35_4588aff-2e3b-45a7-845c-15434797920a" class="st47" d="M78.7 173.4l-3.7-2.2c-.5-.3-1.1-.3-1.6 0l-3.7 2.1c-.4.2-.5.7-.3 1.1l.3.3 3.6 2.2c.5.3 1.1.3 1.6 0l3.8-2.1c.4-.2.5-.7.3-1.1 0-.1-.1-.2-.3-.3z"/></g><path id="_x39_a1bb63c-1e50-4c24-bd91-ff940abcb204" class="st46" d="M53.1 73.7L29.8 87.1V93l23.3-13.4z"/><path id="_x30_32a4d47-8dcd-48a4-b62d-f395e43ebddc" class="st46" d="M73.4 72L29.8 97.3v3.8l43.6-25.3z"/><path id="_x33_c0381d6-c09f-45fa-9c4f-f7c519dcc1c1" class="st46" d="M73.4 79l-43.6 25.3v3.7l43.6-25.2z"/><path id="_x36_c053cf4-acdb-4350-889b-f498948eeb50" class="st46" d="M117.2 77.8L73.7 103v3.8l43.5-25.2z"/><path id="_x35_6797d30-10f8-4a3d-b8f0-9709b93348e3" class="st46" d="M117.2 70.6L73.7 95.8v3.8l43.5-25.2z"/><path id="bbfe662c-29cf-4ed2-b00c-3042bc0cf0ed" class="st46" d="M117.2 84.7L73.7 110v3.8l43.5-25.3z"/><g class="st48"><path id="_x32_424ae9c-4e49-45c2-a5a6-c0f336964e37" class="st0" d="M179.8 195.8c.5-.2.8-.8.6-1.3-.1-.3-.3-.5-.6-.6l-17.7-10.2c-1-.5-2.2-.5-3.3 0L141.1 194c-.5.2-.8.8-.6 1.3.1.3.3.5.6.6l17.7 10.2c1 .5 2.2.5 3.3 0l17.7-10.3z"/><path class="st1" d="M179.7 195.8c.5-.2.8-.8.5-1.3-.1-.2-.3-.4-.5-.5l-17.6-10.1c-1-.5-2.2-.5-3.2 0L141.3 194c-.5.2-.8.8-.5 1.3.1.2.3.4.5.5l17.6 10.1c1 .5 2.2.5 3.2 0l17.6-10.1z"/><path class="st2" d="M179.5 195.8c.5-.2.7-.8.5-1.3-.1-.2-.3-.4-.5-.5l-17.4-10c-1-.5-2.2-.5-3.2 0l-17.4 10c-.5.2-.7.8-.5 1.3.1.2.3.4.5.5l17.4 10c1 .5 2.2.5 3.2 0l17.4-10z"/><path class="st3" d="M179.3 195.8c.5-.2.7-.8.5-1.3-.1-.2-.3-.4-.5-.5L162 184c-1-.5-2.2-.5-3.2 0l-17.3 10c-.5.2-.7.8-.5 1.3.1.2.3.4.5.5l17.3 10c1 .5 2.2.5 3.2 0l17.3-10z"/><path class="st4" d="M179.2 195.8c.5-.2.7-.8.5-1.3-.1-.2-.3-.4-.5-.5l-17.2-9.9c-1-.5-2.2-.5-3.1 0l-17.1 9.9c-.5.2-.7.8-.5 1.3.1.2.3.4.5.5l17.2 9.9c1 .5 2.2.5 3.1 0l17.1-9.9z"/><path class="st5" d="M179 195.8c.5-.2.7-.8.4-1.3-.1-.2-.3-.4-.4-.4l-17-9.8c-1-.5-2.1-.5-3.1 0l-17 9.8c-.5.2-.7.8-.4 1.3.1.2.3.4.4.4l17.1 9.8c1 .5 2.1.5 3.1 0l16.9-9.8z"/><path class="st6" d="M178.9 195.8c.5-.2.7-.7.6-1.2-.1-.3-.3-.5-.6-.6l-16.9-9.7c-1-.5-2.1-.5-3.1 0l-16.8 9.7c-.5.2-.7.7-.6 1.2.1.3.3.5.6.6l16.8 9.7c1 .5 2.1.5 3.1 0l16.9-9.7z"/><path class="st7" d="M178.7 195.8c.5-.2.7-.7.6-1.2-.1-.3-.3-.5-.6-.6l-16.7-9.6c-.9-.5-2.1-.5-3 0l-16.7 9.6c-.5.2-.7.7-.6 1.2.1.3.3.5.6.6l16.6 9.6c.9.5 2.1.5 3 0l16.8-9.6z"/><path class="st8" d="M178.5 195.8c.5-.2.7-.7.6-1.2-.1-.3-.3-.5-.6-.6l-16.6-9.5c-.9-.5-2.1-.5-3 0l-16.5 9.6c-.5.2-.7.7-.6 1.2.1.3.3.5.6.6l16.5 9.5c.9.5 2.1.5 3 0l16.6-9.6z"/><path class="st9" d="M178.4 195.8c.5-.2.7-.7.6-1.1-.1-.3-.3-.5-.6-.6l-16.4-9.5c-.9-.5-2.1-.5-3 0l-16.4 9.5c-.5.2-.7.7-.6 1.1.1.3.3.5.6.6l16.4 9.5c.9.5 2.1.5 3 0l16.4-9.5z"/><path class="st10" d="M178.2 195.8c.5-.2.7-.7.6-1.1-.1-.3-.3-.5-.6-.6l-16.3-9.4c-.9-.5-2.1-.5-3 0l-16.2 9.3c-.5.2-.7.7-.6 1.1.1.3.3.5.6.6l16.2 9.4c.9.5 2.1.5 3 0l16.3-9.3z"/><path class="st11" d="M178 195.8c.5-.2.7-.7.5-1.2-.1-.2-.3-.4-.5-.5l-16.1-9.3c-.9-.5-2-.5-2.9 0l-16.1 9.3c-.5.2-.7.7-.5 1.2.1.2.3.4.5.5L159 205c.9.5 2 .5 2.9 0l16.1-9.2z"/><path class="st12" d="M177.9 195.7c.5-.2.7-.7.5-1.1-.1-.3-.3-.5-.5-.5l-15.9-9.2c-.9-.5-2-.5-2.9 0l-15.9 9.2c-.5.2-.7.7-.5 1.1.1.3.3.5.5.5L159 205c.9.5 2 .5 2.9 0l16-9.3z"/><path class="st13" d="M177.7 195.7c.5-.2.7-.7.5-1.1-.1-.3-.3-.4-.5-.5l-15.8-9.1c-.9-.5-2-.5-2.9 0l-15.8 9.1c-.5.2-.7.7-.5 1.1.1.3.3.4.5.5l15.8 9.1c.9.5 2 .5 2.9 0l15.8-9.1z"/><path class="st14" d="M177.5 195.7c.5-.2.7-.6.5-1.1-.1-.3-.3-.5-.5-.5l-15.6-9c-.9-.5-2-.5-2.9 0l-15.6 9c-.5.2-.7.6-.5 1.1.1.3.3.5.5.5l15.6 9c.9.5 2 .5 2.9 0l15.6-9z"/><path class="st15" d="M177.4 195.7c.5-.2.7-.6.5-1.1-.1-.3-.3-.5-.5-.5l-15.5-8.9c-.9-.4-1.9-.4-2.8 0l-15.5 8.9c-.5.2-.7.6-.5 1.1.1.3.3.5.5.5l15.5 8.9c.9.4 1.9.4 2.8 0l15.5-8.9z"/><path class="st16" d="M177.2 195.7c.4-.1.7-.6.6-1.1-.1-.3-.3-.5-.6-.6l-15.3-8.9c-.9-.4-1.9-.4-2.8 0l-15.3 8.9c-.4.1-.7.6-.6 1.1.1.3.3.5.6.6l15.3 8.9c.9.4 1.9.4 2.8 0l15.3-8.9z"/><path class="st17" d="M177 195.7c.4-.2.7-.6.5-1.1-.1-.2-.3-.4-.5-.5l-15.2-8.8c-.9-.4-1.9-.4-2.8 0l-15.2 8.8c-.4.2-.7.6-.5 1.1.1.2.3.4.5.5l15.2 8.8c.9.4 1.9.4 2.8 0l15.2-8.8z"/><path class="st18" d="M176.9 195.7c.4-.2.7-.6.5-1.1-.1-.2-.3-.4-.5-.5l-15-8.7c-.9-.4-1.9-.4-2.7 0l-15 8.7c-.4.2-.7.6-.5 1.1.1.2.3.4.5.5l15 8.7c.9.4 1.9.4 2.7 0l15-8.7z"/><path class="st19" d="M176.7 195.7c.4-.1.7-.6.5-1.1-.1-.2-.3-.4-.5-.5l-14.9-8.6c-.9-.4-1.9-.4-2.7 0l-14.9 8.6c-.4.1-.7.6-.5 1.1.1.2.3.4.5.5l14.9 8.6c.9.4 1.9.4 2.7 0l14.9-8.6z"/><path class="st20" d="M176.6 195.7c.4-.1.7-.6.5-1-.1-.2-.3-.4-.5-.5l-14.7-8.5c-.8-.4-1.8-.4-2.7 0l-14.7 8.5c-.4.1-.7.6-.5 1 .1.2.3.4.5.5l14.7 8.5c.8.4 1.8.4 2.7 0l14.7-8.5z"/><path class="st21" d="M176.4 195.7c.4-.1.7-.6.5-1-.1-.2-.3-.4-.5-.5l-14.6-8.4c-.8-.4-1.8-.4-2.7 0l-14.6 8.4c-.4.1-.7.6-.5 1 .1.2.3.4.5.5l14.6 8.4c.8.4 1.8.4 2.7 0l14.6-8.4z"/><path class="st22" d="M176.2 195.7c.4-.1.6-.6.5-1-.1-.2-.3-.4-.5-.5l-14.4-8.3c-.8-.4-1.8-.4-2.6 0l-14.4 8.3c-.4.1-.6.6-.5 1 .1.2.3.4.5.5l14.4 8.3c.8.4 1.8.4 2.6 0l14.4-8.3z"/><path class="st23" d="M176.1 195.7c.4-.1.6-.6.5-1-.1-.2-.3-.4-.5-.5l-14.3-8.3c-.8-.4-1.8-.4-2.6 0l-14.3 8.3c-.4.1-.6.6-.5 1 .1.2.3.4.5.5l14.3 8.3c.8.4 1.8.4 2.6 0l14.3-8.3z"/><path class="st24" d="M175.9 195.6c.4-.1.6-.6.5-1-.1-.2-.3-.4-.5-.5l-14.2-8.2c-.8-.4-1.8-.4-2.6 0l-14.2 8.2c-.4.1-.6.6-.5 1 .1.2.3.4.5.5l14.1 8.2c.8.4 1.8.4 2.6 0l14.3-8.2z"/><path class="st25" d="M175.8 195.6c.4-.1.6-.6.5-1-.1-.2-.3-.4-.5-.5l-14-8.1c-.8-.4-1.7-.4-2.6 0l-14 8.1c-.4.1-.6.6-.5 1 .1.2.3.4.5.5l14 8.1c.8.4 1.7.4 2.6 0l14-8.1z"/><path class="st26" d="M175.6 195.6c.4-.1.6-.6.5-1-.1-.2-.3-.4-.5-.5l-13.8-8c-.8-.4-1.7-.4-2.5 0l-13.8 8c-.4.1-.6.6-.5 1 .1.2.3.4.5.5l13.8 8c.8.4 1.7.4 2.5 0l13.8-8z"/><path class="st27" d="M175.4 195.6c.4-.1.6-.6.5-1-.1-.2-.3-.4-.5-.5l-13.7-7.9c-.8-.4-1.7-.4-2.5 0l-13.7 7.9c-.4.1-.6.6-.5 1 .1.2.3.4.5.5l13.7 7.9c.8.4 1.7.4 2.5 0l13.7-7.9z"/><path class="st28" d="M175.3 195.6c.4-.1.6-.5.5-.9-.1-.2-.3-.4-.5-.5l-13.5-7.8c-.8-.4-1.7-.4-2.5 0l-13.5 7.8c-.4.1-.6.5-.5.9.1.2.3.4.5.5l13.5 7.8c.8.4 1.7.4 2.5 0l13.5-7.8z"/><path class="st29" d="M175.1 195.6c.4-.1.6-.6.4-1-.1-.2-.2-.4-.4-.4l-13.4-7.7c-.8-.4-1.7-.4-2.4 0l-13.4 7.7c-.4.1-.6.6-.4 1 .1.2.2.4.4.4l13.4 7.7c.8.4 1.7.4 2.4 0l13.4-7.7z"/><path class="st30" d="M175 195.6c.4-.1.6-.6.4-.9-.1-.2-.2-.4-.4-.4l-13.3-7.7c-.8-.4-1.7-.4-2.4 0l-13.3 7.6c-.4.1-.6.6-.4.9.1.2.2.4.4.4l13.2 7.6c.8.4 1.7.4 2.4 0l13.4-7.5z"/><path class="st31" d="M174.8 195.6c.4-.1.6-.5.5-.9-.1-.2-.2-.4-.5-.5l-13.1-7.6c-.8-.4-1.6-.4-2.4 0l-13.1 7.6c-.4.1-.6.5-.5.9.1.2.2.4.5.5l13.1 7.6c.8.4 1.6.4 2.4 0l13.1-7.6z"/><path class="st32" d="M174.6 195.6c.4-.1.6-.5.4-.9-.1-.2-.2-.4-.4-.4l-12.9-7.5c-.7-.4-1.6-.4-2.4 0l-12.9 7.5c-.4.1-.6.5-.4.9.1.2.2.4.4.4l12.9 7.4c.7.4 1.6.4 2.4 0l12.9-7.4z"/><path class="st33" d="M174.4 195.6c.4-.1.6-.5.5-.9-.1-.2-.2-.4-.5-.5l-12.8-7.4c-.7-.4-1.6-.4-2.3 0l-12.8 7.4c-.4.1-.6.5-.5.9.1.2.2.4.5.5l12.8 7.4c.7.4 1.6.4 2.3 0l12.8-7.4z"/><path class="st34" d="M174.3 195.6c.4-.1.6-.5.4-.9-.1-.2-.2-.4-.4-.4l-12.6-7.3c-.7-.4-1.6-.4-2.3 0l-12.6 7.3c-.4.1-.6.5-.4.9.1.2.2.4.4.4l12.6 7.3c.7.4 1.6.4 2.3 0l12.6-7.3z"/><path class="st35" d="M174.1 195.6c.4-.1.6-.5.4-.9-.1-.2-.2-.4-.4-.4l-12.5-7.2c-.7-.4-1.6-.4-2.3 0l-12.5 7.2c-.4.1-.6.5-.4.9.1.2.2.4.4.4l12.5 7.2c.7.4 1.6.4 2.3 0l12.5-7.2z"/><path class="st36" d="M174 195.6c.4-.1.5-.5.4-.9-.1-.2-.2-.3-.4-.4l-12.3-7.1c-.7-.4-1.5-.4-2.3 0l-12.4 7.1c-.4.1-.5.5-.4.9.1.2.2.3.4.4l12.3 7.1c.7.4 1.5.4 2.3 0l12.4-7.1z"/><path class="st37" d="M173.8 195.6c.4-.1.5-.5.4-.9-.1-.2-.2-.3-.4-.4l-12.2-7c-.7-.4-1.5-.4-2.2 0l-12.2 7c-.4.1-.5.5-.4.9.1.2.2.3.4.4l12.2 7c.7.4 1.5.4 2.2 0l12.2-7z"/><path class="st38" d="M173.6 195.6c.4-.1.5-.5.4-.8-.1-.2-.2-.4-.4-.4l-12-7c-.7-.3-1.5-.3-2.2 0l-12 7c-.4.1-.5.5-.4.8.1.2.2.4.4.4l12 7c.7.3 1.5.3 2.2 0l12-7z"/><path class="st39" d="M173.5 195.6c.3-.1.5-.5.4-.8-.1-.2-.2-.3-.4-.4l-11.9-6.9c-.7-.3-1.5-.3-2.2 0l-11.9 6.9c-.3.1-.5.5-.4.8.1.2.2.3.4.4l11.9 6.9c.7.3 1.5.3 2.2 0l11.9-6.9z"/><path class="st40" d="M173.3 195.6c.3-.1.5-.5.4-.8-.1-.2-.2-.4-.4-.4l-11.7-6.8c-.7-.3-1.5-.3-2.1 0l-11.8 6.8c-.3.1-.5.5-.4.8.1.2.2.4.4.4l11.8 6.8c.7.3 1.5.3 2.1 0l11.7-6.8z"/><path id="e4a082f5-6ae0-4bb4-a718-d65de14d9050" class="st41" d="M173.1 195.6c.3-.1.5-.5.4-.8-.1-.2-.2-.3-.4-.4l-11.6-6.7c-.7-.3-1.5-.3-2.1 0l-11.6 6.7c-.3.1-.5.5-.4.8.1.2.2.3.4.4l11.6 6.7c.7.3 1.5.3 2.1 0l11.6-6.7z"/></g><g id="f075e0ec-8378-4082-ab71-b99ba21ec97f"><path id="_x30_5e59b3b-d492-423b-b5d0-42dbf983c376" class="st49" d="M178 186.6l-17.4-10-17.3 10 17.3 10z"/><path id="f8877ae2-7622-4a0f-94c1-23f02d1abc59" class="st46" d="M178 186.6v7.5l-17.4 10v-7.5z"/><path id="_x37_d6712fa-a068-4588-b06e-0403ec863f09" class="st43" d="M177.2 188.4v1.9l-4.4 2.5v-1.9z"/><path id="_x30_55ec72b-d407-4e7e-826e-2fa8474d83e0" class="st50" d="M160.6 204.1l-17.3-10v-7.5l17.3 10z"/><path id="_x39_0d84351-8a1d-40e8-ae6a-3581c8d9a271" class="st51" d="M171.1 198.1v-7.5l-3.5 2v7.5z"/><path id="a473a967-edd4-40d3-b69d-e02b65bc5983" class="st51" d="M171.1 190.6l-17.4-10-3.6 2 17.5 10z"/></g><g class="st48"><path id="a3a85e5c-ec21-48e2-8c30-e7259ec60925" class="st0" d="M150.5 218.2c.5-.2.8-.8.6-1.3-.1-.3-.3-.5-.6-.6l-17.7-10.2c-1-.5-2.2-.5-3.3 0l-17.7 10.3c-.5.2-.8.8-.6 1.3.1.3.3.5.6.6l17.7 10.2c1 .5 2.2.5 3.3 0l17.7-10.3z"/><path class="st1" d="M150.4 218.2c.5-.2.8-.8.5-1.3-.1-.2-.3-.4-.5-.5l-17.6-10.1c-1-.5-2.2-.5-3.2 0L112 216.4c-.5.2-.8.8-.5 1.3.1.2.3.4.5.5l17.6 10.1c1 .5 2.2.5 3.2 0l17.6-10.1z"/><path class="st2" d="M150.2 218.2c.5-.2.7-.8.5-1.3-.1-.2-.3-.4-.5-.5l-17.4-10c-1-.5-2.2-.5-3.2 0l-17.4 10c-.5.2-.7.8-.5 1.3.1.2.3.4.5.5l17.4 10c1 .5 2.2.5 3.2 0l17.4-10z"/><path class="st3" d="M150 218.2c.5-.2.7-.8.5-1.3-.1-.2-.3-.4-.5-.5l-17.3-10c-1-.5-2.2-.5-3.2 0l-17.3 10c-.5.2-.7.8-.5 1.3.1.2.3.4.5.5l17.3 10c1 .5 2.2.5 3.2 0l17.3-10z"/><path class="st4" d="M149.9 218.2c.5-.2.7-.8.5-1.3-.1-.2-.3-.4-.5-.5l-17.1-9.9c-1-.5-2.2-.5-3.1 0l-17.1 9.9c-.5.2-.7.8-.5 1.3.1.2.3.4.5.5l17.1 9.9c1 .5 2.2.5 3.1 0l17.1-9.9z"/><path class="st5" d="M149.7 218.2c.5-.2.7-.8.4-1.3-.1-.2-.3-.4-.4-.4l-17-9.8c-1-.5-2.1-.5-3.1 0l-17 9.8c-.5.2-.7.8-.4 1.3.1.2.3.4.4.4l17 9.8c1 .5 2.1.5 3.1 0l17-9.8z"/><path class="st6" d="M149.5 218.2c.5-.2.7-.7.6-1.2-.1-.3-.3-.5-.6-.6l-16.8-9.7c-1-.5-2.1-.5-3.1 0l-16.8 9.7c-.5.2-.7.7-.6 1.2.1.3.3.5.6.6l16.8 9.7c1 .5 2.1.5 3.1 0l16.8-9.7z"/><path class="st7" d="M149.4 218.2c.5-.2.7-.7.6-1.2-.1-.3-.3-.5-.6-.6l-16.7-9.6c-.9-.5-2.1-.5-3 0l-16.7 9.6c-.5.2-.7.7-.6 1.2.1.3.3.5.6.6l16.7 9.6c.9.5 2.1.5 3 0l16.7-9.6z"/><path class="st8" d="M149.2 218.1c.5-.2.7-.7.6-1.2-.1-.3-.3-.5-.6-.6l-16.5-9.6c-.9-.5-2.1-.5-3 0l-16.5 9.6c-.5.2-.7.7-.6 1.2.1.3.3.5.6.6l16.5 9.6c.9.5 2.1.5 3 0l16.5-9.6z"/><path class="st9" d="M149.1 218.1c.5-.2.7-.7.6-1.1-.1-.3-.3-.5-.6-.6l-16.4-9.5c-.9-.5-2.1-.5-3 0l-16.4 9.5c-.5.2-.7.7-.6 1.1.1.3.3.5.6.6l16.4 9.5c.9.5 2.1.5 3 0l16.4-9.5z"/><path class="st10" d="M148.9 218.1c.5-.2.7-.7.6-1.1-.1-.3-.3-.5-.6-.6l-16.2-9.4c-.9-.5-2.1-.5-3 0l-16.2 9.4c-.5.2-.7.7-.6 1.1.1.3.3.5.6.6l16.2 9.4c.9.5 2.1.5 3 0l16.2-9.4z"/><path class="st11" d="M148.7 218.1c.5-.2.7-.7.5-1.2-.1-.2-.3-.4-.5-.5l-16.1-9.3c-.9-.5-2-.5-2.9 0l-16.1 9.3c-.5.2-.7.7-.5 1.2.1.2.3.4.5.5l16.1 9.3c.9.5 2 .5 2.9 0l16.1-9.3z"/><path class="st12" d="M148.6 218.1c.5-.2.7-.7.5-1.1-.1-.3-.3-.5-.5-.5l-15.9-9.2c-.9-.5-2-.5-2.9 0l-15.9 9.2c-.5.2-.7.7-.5 1.1.1.3.3.5.5.5l15.9 9.2c.9.5 2 .5 2.9 0l15.9-9.2z"/><path class="st13" d="M148.4 218.1c.5-.2.7-.7.5-1.1-.1-.3-.3-.4-.5-.5l-15.8-9.1c-.9-.5-2-.5-2.9 0l-15.8 9.1c-.5.2-.7.7-.5 1.1.1.3.3.4.5.5l15.8 9.1c.9.5 2 .5 2.9 0l15.8-9.1z"/><path class="st14" d="M148.2 218.1c.5-.2.7-.6.5-1.1-.1-.3-.3-.5-.5-.5l-15.6-9c-.9-.5-2-.5-2.9 0l-15.6 9c-.5.2-.7.6-.5 1.1.1.3.3.5.5.5l15.6 9c.9.5 2 .5 2.9 0l15.6-9z"/><path class="st15" d="M148.1 218.1c.5-.2.7-.6.5-1.1-.1-.3-.3-.5-.5-.5l-15.5-8.9c-.9-.4-1.9-.4-2.8 0l-15.5 8.9c-.5.2-.7.6-.5 1.1.1.3.3.5.5.5l15.5 8.9c.9.4 1.9.4 2.8 0l15.5-8.9z"/><path class="st16" d="M147.9 218.1c.4-.1.7-.6.6-1.1-.1-.3-.3-.5-.6-.6l-15.4-8.9c-.9-.4-1.9-.4-2.8 0l-15.3 8.9c-.4.1-.7.6-.6 1.1.1.3.3.5.6.6l15.3 8.9c.9.4 1.9.4 2.8 0l15.4-8.9z"/><path class="st17" d="M147.7 218.1c.4-.2.7-.6.5-1.1-.1-.2-.3-.4-.5-.5l-15.2-8.8c-.9-.4-1.9-.4-2.8 0l-15.2 8.8c-.4.2-.7.6-.5 1.1.1.2.3.4.5.5l15.2 8.8c.9.4 1.9.4 2.8 0l15.2-8.8z"/><path class="st18" d="M147.6 218.1c.4-.2.7-.6.5-1.1-.1-.2-.3-.4-.5-.5l-15-8.7c-.9-.4-1.9-.4-2.7 0l-15 8.7c-.4.2-.7.6-.5 1.1.1.2.3.4.5.5l15 8.7c.9.4 1.9.4 2.7 0l15-8.7z"/><path class="st19" d="M147.4 218.1c.4-.1.7-.6.5-1.1-.1-.2-.3-.4-.5-.5l-14.9-8.6c-.9-.4-1.9-.4-2.7 0l-14.9 8.6c-.4.1-.7.6-.5 1.1.1.2.3.4.5.5l14.9 8.6c.9.4 1.9.4 2.7 0l14.9-8.6z"/><path class="st20" d="M147.3 218.1c.4-.1.7-.6.5-1-.1-.2-.3-.4-.5-.5l-14.7-8.5c-.8-.4-1.8-.4-2.7 0l-14.7 8.5c-.4.1-.7.6-.5 1 .1.2.3.4.5.5l14.7 8.5c.8.4 1.8.4 2.7 0l14.7-8.5z"/><path class="st21" d="M147.1 218c.4-.1.7-.6.5-1-.1-.2-.3-.4-.5-.5l-14.6-8.4c-.8-.4-1.8-.4-2.7 0l-14.6 8.4c-.4.1-.7.6-.5 1 .1.2.3.4.5.5l14.6 8.4c.8.4 1.8.4 2.7 0l14.6-8.4z"/><path class="st22" d="M146.9 218c.4-.1.6-.6.5-1-.1-.2-.3-.4-.5-.5l-14.4-8.3c-.8-.4-1.8-.4-2.6 0l-14.4 8.3c-.4.1-.6.6-.5 1 .1.2.3.4.5.5l14.5 8.3c.8.4 1.8.4 2.6 0l14.3-8.3z"/><path class="st23" d="M146.8 218c.4-.1.6-.6.5-1-.1-.2-.3-.4-.5-.5l-14.3-8.3c-.8-.4-1.8-.4-2.6 0l-14.3 8.3c-.4.1-.6.6-.5 1 .1.2.3.4.5.5l14.3 8.3c.8.4 1.8.4 2.6 0l14.3-8.3z"/><path class="st24" d="M146.6 218c.4-.1.6-.6.5-1-.1-.2-.3-.4-.5-.5l-14.1-8.2c-.8-.4-1.8-.4-2.6 0l-14.1 8.2c-.4.1-.6.6-.5 1 .1.2.3.4.5.5l14.2 8.2c.8.4 1.8.4 2.6 0l14-8.2z"/><path class="st25" d="M146.4 218c.4-.1.6-.6.5-1-.1-.2-.3-.4-.5-.5l-14-8.1c-.8-.4-1.7-.4-2.6 0l-14 8.1c-.4.1-.6.6-.5 1 .1.2.3.4.5.5l14 8.1c.8.4 1.7.4 2.6 0l14-8.1z"/><path class="st26" d="M146.3 218c.4-.1.6-.6.5-1-.1-.2-.3-.4-.5-.5l-13.8-8c-.8-.4-1.7-.4-2.5 0l-13.8 8c-.4.1-.6.6-.5 1 .1.2.3.4.5.5l13.8 8c.8.4 1.7.4 2.5 0l13.8-8z"/><path class="st27" d="M146.1 218c.4-.1.6-.6.5-1-.1-.2-.3-.4-.5-.5l-13.7-7.9c-.8-.4-1.7-.4-2.5 0l-13.7 7.9c-.4.1-.6.6-.5 1 .1.2.3.4.5.5l13.7 7.9c.8.4 1.7.4 2.5 0l13.7-7.9z"/><path class="st28" d="M145.9 218c.4-.1.6-.6.4-1-.1-.2-.2-.4-.4-.4l-13.5-7.8c-.8-.4-1.7-.4-2.5 0l-13.5 7.8c-.4.1-.6.5-.5.9.1.2.3.4.5.5l13.5 7.8c.8.4 1.7.4 2.5 0l13.5-7.8z"/><path class="st29" d="M145.8 218c.4-.1.6-.6.4-1-.1-.2-.2-.4-.4-.4l-13.4-7.7c-.8-.4-1.7-.4-2.4 0l-13.4 7.7c-.4.1-.6.6-.4 1 .1.2.2.4.4.4l13.4 7.7c.8.4 1.7.4 2.4 0l13.4-7.7z"/><path class="st30" d="M145.6 218c.4-.1.6-.6.5-.9-.1-.2-.2-.4-.5-.5l-13.2-7.6c-.8-.4-1.7-.4-2.4 0l-13.2 7.6c-.4.1-.6.6-.5.9.1.2.2.4.5.5l13.3 7.6c.8.4 1.7.4 2.4 0l13.1-7.6z"/><path class="st31" d="M145.5 218c.4-.1.6-.5.5-.9-.1-.2-.2-.4-.5-.5l-13.1-7.6c-.8-.4-1.6-.4-2.4 0l-13.1 7.6c-.4.1-.6.5-.5.9.1.2.2.4.5.5l13.1 7.6c.8.4 1.6.4 2.4 0l13.1-7.6z"/><path class="st32" d="M145.3 218c.4-.1.6-.5.4-.9-.1-.2-.2-.4-.4-.4l-12.9-7.5c-.7-.4-1.6-.4-2.4 0l-13 7.5c-.4.1-.6.5-.4.9.1.2.2.4.4.4l13 7.4c.7.4 1.6.4 2.4 0l12.9-7.4z"/><path class="st33" d="M145.1 217.9c.4-.1.6-.5.5-.9-.1-.2-.2-.4-.5-.5l-12.8-7.4c-.7-.4-1.6-.4-2.3 0l-12.8 7.4c-.4.1-.6.5-.5.9.1.2.2.4.5.5l12.8 7.4c.7.4 1.6.4 2.3 0l12.8-7.4z"/><path class="st34" d="M145 217.9c.4-.1.6-.5.4-.9-.1-.2-.2-.4-.4-.4l-12.6-7.3c-.7-.4-1.6-.4-2.3 0l-12.6 7.3c-.4.1-.6.5-.4.9.1.2.2.4.4.4l12.6 7.3c.7.4 1.6.4 2.3 0l12.6-7.3z"/><path class="st35" d="M144.8 217.9c.4-.1.6-.5.4-.9-.1-.2-.2-.4-.4-.4l-12.5-7.2c-.7-.4-1.6-.4-2.3 0l-12.5 7.2c-.4.1-.6.5-.4.9.1.2.2.4.4.4l12.5 7.2c.7.4 1.6.4 2.3 0l12.5-7.2z"/><path class="st36" d="M144.6 217.9c.4-.1.5-.5.4-.9-.1-.2-.2-.3-.4-.4l-12.3-7.1c-.7-.4-1.5-.4-2.3 0l-12.3 7.1c-.4.1-.5.5-.4.9.1.2.2.3.4.4L130 225c.7.4 1.5.4 2.3 0l12.3-7.1z"/><path class="st37" d="M144.5 217.9c.4-.1.5-.5.4-.9-.1-.2-.2-.3-.4-.4l-12.2-7c-.7-.4-1.5-.4-2.2 0l-12.2 7c-.4.1-.5.5-.4.9.1.2.2.3.4.4l12.2 7c.7.4 1.5.4 2.2 0l12.2-7z"/><path class="st38" d="M144.3 217.9c.4-.1.5-.5.4-.8-.1-.2-.2-.4-.4-.4l-12-7c-.7-.3-1.5-.3-2.2 0l-12 7c-.4.1-.5.5-.4.8.1.2.2.4.4.4l12 7c.7.3 1.5.3 2.2 0l12-7z"/><path class="st39" d="M144.2 217.9c.3-.1.5-.5.4-.8-.1-.2-.2-.3-.4-.4l-11.9-6.9c-.7-.3-1.5-.3-2.2 0l-11.9 6.9c-.3.1-.5.5-.4.8.1.2.2.3.4.4l11.9 6.9c.7.3 1.5.3 2.2 0l11.9-6.9z"/><path class="st40" d="M144 217.9c.3-.1.5-.5.4-.8-.1-.2-.2-.4-.4-.4l-11.8-6.8c-.7-.3-1.5-.3-2.1 0l-11.8 6.8c-.3.1-.5.5-.4.8.1.2.2.4.4.4l11.8 6.8c.7.3 1.5.3 2.1 0l11.8-6.8z"/><path id="_x32_c94f950-138c-49ff-9349-54adbbbdf66a" class="st41" d="M143.8 217.9c.3-.1.5-.5.4-.8-.1-.2-.2-.3-.4-.4l-11.6-6.7c-.7-.3-1.5-.3-2.1 0l-11.6 6.7c-.3.1-.5.5-.4.8.1.2.2.3.4.4l11.6 6.7c.7.3 1.5.3 2.1 0l11.6-6.7z"/></g><path id="_x31_1539f4f-db1f-4f8d-966f-f7e051c34506" class="st49" d="M147.5 198.5l-16.1-9.2-16.1 9.2 16.1 9.3z"/><path id="b2ed58f1-38ca-43a1-adac-29bb534b46d6" class="st46" d="M147.5 198.5v18.6l-16.1 9.3v-18.6z"/><path id="_x39_6f869f5-3474-4f58-b1c8-5b6d482ee31d" class="st50" d="M131.4 226.4l-16.1-9.3v-18.6l16.1 9.3z"/><path id="a3595c54-0377-4174-9e5a-e12febed9a09" fill="#555373" d="M141 220.8v-18.6l-3.2 1.9v18.5z"/><path id="_x36_b5d1974-44d2-4152-bde3-34aa9be7b288" class="st53" d="M141 202.2l-16-9.2-3.3 1.8 16.1 9.3z"/><path id="_x34_6b4f6ad-f10a-4245-bb44-589c65356a45" class="st53" d="M140.9 194.7l-15.9 9.4-3.2-1.9 15.8-9.4z"/><path id="_x30_8dde795-5c42-40bc-a9c6-7e481b8d6d74" class="st41" d="M125 204.1v18.5l-3.2-1.8v-18.6z"/><path id="deb157bf-c370-42f2-bb03-b102402a9eea" class="st41" d="M122.9 198.2a6.5 6.5 0 014.3-.9l2.9.3 2.4 1.2-6.6 3.6-3-1.4c-.8-.4-1-1.4-.6-2.2l.6-.6z"/><path id="f5e30563-e0ee-462d-b232-95b1c4d0f068" class="st41" d="M131.3 194.9c.6-1.4 1.6-2.5 2.9-3.3.4-.3 1-.3 1.4-.1h.1l.1.1 2.5 1.3-5.7 6-2.4-1.2 1.1-2.8z"/><path id="_x33_9a12672-730e-4a7e-8cbf-6eb93f4a21d9" d="M132.6 198.9l5.6-3.3c.5-.3.8-.8.8-1.4 0-.9-.7-1.6-1.6-1.6-.3 0-.6.1-.8.2-1.3.8-2.3 1.9-2.9 3.3l-1.1 2.8z" fill="#feea74"/><path id="_x39_8842ea5-d575-45fc-aa45-74b172679969" class="st53" d="M132.6 198.9l5.6-3.3c.5-.3.8-.8.8-1.4 0-.9-.7-1.6-1.6-1.6-.3 0-.6.1-.8.2-1.3.8-2.3 1.9-2.9 3.3l-1.1 2.8z"/><path id="_x30_f771e55-0198-48a0-93f1-86199f273619" class="st55" d="M138.1 195.4c.7-.4.9-1.2.5-1.9-.2-.4-.7-.7-1.2-.7-.2 0-.5.1-.7.2-1.2.7-2.2 1.9-2.8 3.2l-.9 2.1 5.1-2.9z"/><path id="_x30_aa8bb81-f084-44dd-8a4f-5f24da30d862" class="st53" d="M132.6 198.9l-5.6 3.4c-.5.3-1.1.3-1.6 0-.8-.4-1.1-1.4-.6-2.2.1-.3.3-.5.6-.6a6.5 6.5 0 014.3-.9l2.9.3z"/><path id="bb666f17-6483-4612-bcdb-767511c79f14" class="st55" d="M126.2 202.2c.3 0 .5-.1.7-.2l5-3-2.3-.3c-1.4-.2-2.9.2-4.1.9-.7.4-.9 1.3-.4 1.9.1.5.6.8 1.1.7z"/><g id="d0568737-67f9-4d99-b771-1cf00d923591"><path id="_x38_6cdfa8d-7d42-4de0-a773-cee5a268f6a0" d="M79.4 58.6c-1.2.7-1.9 2-2 3.4v18.7c0 1.2.9 1.8 2 1.1l36.3-21c1.2-.8 1.9-2 1.9-3.4l-.2-18.5c0-1.2-.9-1.8-2-1.1l-36 20.8z" fill="#f7f8fc"/><linearGradient id="SVGID_1_" gradientUnits="userSpaceOnUse" x1="-436.67" y1="629.799" x2="-396.94" y2="629.799" gradientTransform="matrix(-1 0 0 1 -319.44 -570)"><stop offset="0" stop-color="#d4daed"/><stop offset="1" stop-color="#9aa7d5"/></linearGradient><path d="M79.4 58.6l36.1-20.8c.7-.4 1.4-.3 1.7.2-.4-.1-.9-.1-1.3.2L79.9 59c-1.2.7-1.9 2-2 3.4v18.7c0 .3.1.7.3.9-.5-.2-.8-.8-.7-1.3V62c0-1.4.8-2.6 1.9-3.4z" fill="url(#SVGID_1_)"/><g id="_x33_a686771-f4a5-4d98-bfd6-9ad06e1f6447"><path id="efdeffe4-3658-4651-b5ea-60ebd8768f13" class="st51" d="M85.6 59.7c-3.8 2.5-6.2 6.6-6.4 11.2 0 4.1 2.9 5.8 6.4 3.9s6.4-7 6.4-11.2-2.9-6-6.4-3.9z"/><path id="b42c9419-f9e0-47a2-939a-ffb834ad4380" class="st43" d="M84.1 70.4c-.1.8.4 1.5 1.1 1.7.4.1.9 0 1.2-.3 1.3-.9 2.2-2.4 2.2-4l-4.5 2.6z"/><path id="a5284bba-52db-4628-948a-232d8c231636" class="st41" d="M88.5 63.3c-.4.3-.7.7-.7 1.2 0 .4.3.6.7.4.4-.3.7-.7.7-1.2s-.3-.7-.7-.4z"/><path id="d3a32c13-b083-430b-b860-7b84b6be857b" class="st41" d="M83.9 66c-.4.3-.7.7-.7 1.2 0 .4.3.6.7.4.4-.3.7-.7.7-1.2 0-.4-.3-.6-.7-.4z"/></g><path id="_x30_9ed5975-5089-496f-89d4-2ebbe1434f7b" class="st46" d="M94.1 55.7l.1 1.7 21.1-12.3v-1.7z"/><path id="_x37_b9a0b75-f14f-48d1-b731-5373452fadd1" class="st46" d="M94.1 59.9l.1 1.7 21.1-12.3v-1.8z"/><path id="_x34_b17e6b7-4b90-43a7-80e8-aae8a5144dbb" class="st46" d="M94.1 64l.1 1.8 21.1-12.3v-1.8z"/><path id="db160ace-c883-4faf-8431-17007fb7712d" class="st46" d="M104 62.5v1.8l11.3-6.5V56z"/></g><g id="_x30_e9790ec-29a9-4e2b-88cf-26a3d95f4d05"><path id="_x37_50bda2a-3d63-4e3c-977f-3d35e400a965" class="st41" d="M70.2 96.1v18.2c0 1.1-.6 2.2-1.6 2.8L32.9 138c-.8.5-1.9.2-2.4-.6-.2-.3-.3-.6-.3-.9V118c0-1.1.6-2.2 1.5-2.7l35.7-20.6c.8-.5 1.9-.3 2.5.6.2.1.3.4.3.8z"/><linearGradient id="SVGID_2_" gradientUnits="userSpaceOnUse" x1="-389.03" y1="686.106" x2="-349.64" y2="686.106" gradientTransform="matrix(-1 0 0 1 -319.44 -570)"><stop offset="0" stop-color="#49486b"/><stop offset=".2" stop-color="#4e4f78"/><stop offset=".71" stop-color="#595d94"/><stop offset="1" stop-color="#5d629e"/></linearGradient><path d="M31.7 115.2l35.7-20.6c.7-.4 1.5-.3 2.1.2-.5-.2-1.1-.2-1.6.1l-35.7 20.6c-1 .6-1.6 1.6-1.6 2.7v18.4c0 .5.2 1 .6 1.3-.7-.3-1.1-.9-1.1-1.6v-18.4c.1-1.1.7-2.2 1.6-2.7z" fill="url(#SVGID_2_)"/><path id="bb4723ff-35dc-454c-855e-0f9fa52fbf13" class="st51" d="M50.4 108.9l-16.3 9.6v6.3l16.3-9.5z"/><path id="_x37_591bd04-bd5e-4ad0-96f0-d32a27f03374" class="st46" d="M67.5 107.4L34.1 127v2.4l33.4-19.6z"/><path id="c67a715f-d0c5-49f9-bf59-dbbd8fb11c52" class="st46" d="M55.5 119.4L34.1 132v2.4l21.4-12.6z"/></g><path class="st41" d="M176 52.4h.6v63.7h-.6z" id="_x34_34c0e28-7b75-4ef8-86f7-e66d75c54f45"/><path id="e89717bf-5167-4a51-9e26-55d6fdbbf18b" d="M176 95.3c-5.3-3-9.6-.5-9.6 5.6.4 6.8 4 13 9.6 16.7 5.3 3.1 9.6.6 9.6-5.6-.4-6.8-3.9-12.9-9.6-16.7z" fill="#5d629e"/><path id="e724d7b5-8dd5-495b-8c3b-50d5b6f7a271" class="st41" d="M175.3 95.3c-5.3-3-9.6-.5-9.6 5.6.4 6.8 4 13 9.6 16.7 5.3 3.1 9.6.6 9.6-5.6-.4-6.8-4-12.9-9.6-16.7z"/><path id="_x32_52167a2-8998-49d5-a0ac-e76bd95ab775" class="st43" d="M179.6 108.8c-.1-.4-.3-.7-.6-.9l-.2-.1c.4.2.6-.1.6-.6-.1-.4-.3-.7-.6-.9l-1.4-.7-1.3-.6c0-.2 0-.4.1-.6v-.2c.1-.4.1-.7.1-1.1v-1c0-.2-.1-.4-.3-.6-.1-.1-.2-.2-.3-.2-.3-.1-.5 0-.5.3 0 .5-.1 1-.3 1.5l-.7 1-.5-.3v-.7c0-.1 0-.1-.1-.2l-1.9-.9.2 4.3v2.1l1.9.9h.1v-.6l.3.2h.1l.1.1c.1.1.1.1.1.2l.6 1.1c.1.2.2.3.4.4l2.6 1.3c.2.1.4.1.5-.1.1-.1.1-.2.1-.3 0-.5-.2-.9-.6-1.2l.6.3c.2.1.4.1.5-.1.1-.1.1-.2.1-.3 0-.5-.2-.9-.6-1.2l.6.3c.1.2.4-.1.3-.6z"/><path id="_x33_7cc4473-2855-4c13-81df-37647547be10" d="M176 51.1c-5.3-3-9.6-.5-9.6 5.6.4 6.8 4 13 9.6 16.7 5.3 3.1 9.6.6 9.6-5.6-.4-6.8-3.9-13-9.6-16.7z" fill="#fec111"/><path id="_x35_28adbe3-32fb-4b19-bae1-067c1f0c0a7a" d="M175.3 51.1c-5.3-3-9.6-.5-9.6 5.6.4 6.8 4 13 9.6 16.7 5.3 3.1 9.6.6 9.6-5.6-.4-6.8-4-13-9.6-16.7z" fill="#fdd900"/><g id="f9a094db-9aee-4f4c-9302-cb01b89b95b3"><g id="f1376348-9103-47c8-83ca-7b56962946be"><path id="_x36_2d5ab07-7b76-4743-92be-9084127a7db9" class="st43" d="M176 67.3c-.3 0-.6-.1-.8-.2l-1.6-.9.5-.8 1.6.9c.3.2.7.1.9-.2.1-.1.1-.2.1-.4v-1.2c0-.2-.1-.4-.3-.5l-2-1.2c-.6-.4-1-1-1-1.7v-1.4c0-.7.6-1.3 1.3-1.3.2 0 .5.1.7.2l2 1.2-.5.8-2-1.2c-.2-.1-.4-.1-.5.1 0 .1-.1.1-.1.2v1.4c0 .4.2.7.5.9l2 1.2c.5.3.8.8.8 1.3v1.2c0 .9-.7 1.6-1.6 1.6z"/></g><g id="_x34_99150fa-ce0d-4906-8271-64770e14f7f2"><path id="ec85b97d-707f-4e49-8e61-97114d642e56" class="st43" d="M175.1 57.5h1v1.4h-1z"/></g><g id="c4e64b72-a85b-41f2-870d-bb9e430cf666"><path id="_x34_987e345-117c-4ec6-9f9b-9c79053a6fbf" class="st43" d="M175.1 66.7h1v1.4h-1z"/></g></g><g id="beae1a05-a8d5-4c14-8662-733f4fb65bd3"><path id="_x34_0bdede8-9f04-49f0-8a5b-0d3a0412c148" class="st62" d="M152.6 147.9v2.2c0 .6-.3 1.1-.8 1.3l-.3.2c-1.3.8-2.9.8-4.3.1l-4-2.1c-.3-.2-.4-.6-.3-.9l.3-.3c.7-.6 1.6-.9 2.4-1 .4.1.8.1 1.1.1l1.8.3 4.1.1z"/><path id="_x33_5b37619-1cc0-4f6f-a331-134d10b0ac4d" class="st55" d="M143.3 149.1l4 2.1c1.3.7 3 .7 4.3-.1l.3-.2c.5-.3.8-.8.8-1.3v.5c0 .6-.3 1.1-.8 1.3l-.3.2c-1.3.8-2.9.8-4.3.1l-4-2.1c-.3-.2-.4-.5-.3-.9 0 .2.1.3.3.4z"/><g id="c1273458-8661-419c-82ba-56377e528f9b"><path id="_x30_a46eb93-6721-4316-b14d-0c4fbfdd18a3" class="st43" d="M146.2 148.8l-.5-.2.6-1.1h.6l-.7 1.3z"/><path id="_x39_3100d99-2bd2-4c14-94f5-c7d39e80ab4f" class="st43" d="M147.1 149.1l-.4-.3.6-1.2.5.1z"/></g><path id="adc58d8c-bfd7-46a1-9583-9e5a7d546e4a" class="st62" d="M146.1 152.4v2.2c0 .6-.3 1.1-.8 1.3l-.3.2c-1.3.8-2.9.8-4.3.1l-4-2.1c-.3-.2-.4-.6-.3-.9l.3-.3c.7-.6 1.6-.9 2.4-1 .4.1.8.1 1.1.1l1.8.3 4.1.1z"/><path id="_x39_d5d2e1a-3db4-4d40-852a-bd3075134565" class="st55" d="M136.8 153.6l4 2.1c1.3.7 3 .7 4.3-.1l.3-.2c.5-.3.8-.8.8-1.3v.5c0 .6-.3 1.1-.8 1.3l-.3.2c-1.3.8-2.9.8-4.3.1l-4-2.1c-.3-.2-.4-.5-.3-.9.1.2.2.3.3.4z"/><g id="c34747e3-d623-40fe-8612-d70f495d05aa"><path id="_x32_285817d-92f7-4214-9c47-3a03f12f6636" class="st51" d="M151.2 119.9c.3 0 .6-.1.8-.3l2.3-2.2c3.2-3.1 3.3-8.3.2-11.5-.2-.2-.5-.5-.8-.7l-2.5-2c-.6-.4-1.3-.2-1.7.3-.3.5-.3 1.2.2 1.6l2.5 2c2.5 2 2.8 5.6.8 8.1-.1.2-.3.4-.5.5l-2.3 2.2c-.5.5-.5 1.2 0 1.7.4.1.7.3 1 .3z"/></g><g id="_x35_a16f350-fbad-45e8-af48-55fb860854e3"><g id="_x33_a31fdca-de93-4c46-9361-0c200458abd7"><path id="d2de0ab1-628c-4c6d-be80-4e2f63ce466b" class="st41" d="M150.6 150.3c1.1 0 2-1 1.9-2.1l-.7-13.5.9-14.7c0-1.2-1-2.1-2.1-2.1-1.2 0-3.5 1-3.5 2.1l1.3 28.1c.1 1.2 1.1 2.2 2.2 2.2z"/></g></g><g id="ebd4b91e-b2b5-407a-88fb-6f081c374323"><g id="_x35_63ba0a3-215e-41a4-9a89-104c900d5e39"><path id="_x32_5911f07-762f-4c07-9e9f-78f38c25397b" class="st41" d="M144 154.8c1.2 0 2.1-1 2.1-2.1l-.3-14.4 1.6-13.7c0-1.2-2.3-2.1-3.5-2.1-1.2 0-2.1 1-2.1 2.1v28.1c.1 1.1 1 2.1 2.2 2.1z"/></g></g><g id="_x30_31dbac2-b832-437f-b0d9-809b93069d40"><path id="b1a91cfd-b705-4c1a-9f12-0a14624665ad" class="st41" d="M152.1 117.6l.9 6.8c0 .9-.5 1.6-1.2 2.1l-5.6 3.1c-1.1.6-2.4.2-3-.8-.2-.3-.3-.7-.3-1.1v-13.8c0-.8-1.8-.3-1-.7l7.8-4.5c1.5-.9 2.4 7.1 2.4 8.9z"/></g><path d="M150.4 117.8c-.4.5-.4 1.3.1 1.7.4.4 1.1.4 1.6 0l1.3-1.3c0-.3 0-.5-.1-.8-.1-.8-.1-1.7-.1-2.5l-.6.6-2.2 2.3z" fill="#231f20" opacity=".3"/><g id="b644d7b6-2527-49b6-bfba-6ac1b4028a6f"><path id="_x32_39890e3-e420-400d-847e-09badd5dceb2" class="st51" d="M152.8 106.7l-.4 6.6c.1 1.4.1 2.8.2 4.2.2 2.2.4 4.5.4 6.7-.1.5-1.5 1.6-3.3 2.6-.2.1-.3-4.2-.5-4.1s-.3 4.5-.5 4.6c-2.3 1-5.1 1.7-7 .8l.2-8-.4-5c-.2-3.4-.9-8 2.5-10.1l.4-.3 3.6-2c.8-.5 1.9-.5 2.7 0 1.4.8 2.3 2.4 2.1 4z"/></g><g id="_x33_62e99c3-55ff-4772-a658-8a35838cc90a"><g id="_x35_4a1f8d5-a529-4b4f-b43c-fed0ce806fa3"><path id="_x37_d1f0dce-82be-4443-919a-1d392e62f433" class="st65" d="M147.4 104.9c.7 0 1.2-.5 1.2-1.2v-4.8c-.1-.7-.7-1.2-1.3-1.1-.6.1-1.1.5-1.1 1.1v4.8c-.1.7.5 1.2 1.2 1.2z"/></g></g><g id="_x37_9544407-234f-4509-b7b1-ea7b534e8471"><path id="_x32_2828e7e-5df7-4788-8447-cb016b970c1f" class="st65" d="M146.1 103.5h2.3v-8.1h-6v4.2c.1.9 1.4 3.9 3.7 3.9z"/></g><path id="_x36_059eb9a-da08-432c-a16d-5f9bef7d148e" d="M142.9 95.4v4.2c0 2.2 1.7 3.9 3.9 3.9h-.4c-2.2 0-3.9-1.7-3.9-3.9v-4.2h.4z" fill="#f5c3c3"/><path class="st55" d="M141.1 93.8c.3-.6 1-1 1.6-.7h.1c.3.2.6.3.9.1.3-.3.7-.4 1.1-.3.2 0 .5.2.7.2.5 0 .8-.4 1.3-.2.3.1.6.1.9.1.3-.1.6 0 .9.1.5.2.5.6.8 1s.6.1 1 .4c.3.3.3.7.2 1-.1.2-.2.3-.1.5s.2.2.3.3c.3.3.1.8-.2 1.2-.1.1-.1.2-.1.2 0 .1.1.2.2.3.3.5.3 1.1-.1 1.4-.2.2-.4.3-.5.5 0 .1 0 .3.1.4.1.5-.1 1.1-.6 1.3-.6.3 0 1.3-.9 1.3-.7.1-1.3-.8-1.4-1.3 0 .1-.4-.2-.5-.2-.1-.2-.2-.4-.2-.6-.1-.4-.2-.7-.2-1.1 0-.6 0-1.1-.1-1.7-.3 0-.6 0-.9-.1-.6-.3-.4-.7-.6-1.1-.1-.2-.4-.3-.5-.5-.1-.3-.1-.6-.1-.8-.6.2-1.3.2-1.9 0-.5-.2-1.1-.5-1.1-1.1-.2-.2-.2-.4-.1-.6z" id="_x31_23c1985-cae9-4541-a6ec-c60ead544ca2"/><path id="f4e0583e-d069-4320-8421-ec08cd63c075" d="M140.9 94.5c0 .6.7.9 1.1 1.1.3.1.7.2 1 .1-.2 0-.4-.1-.5-.1-.5-.2-1.1-.5-1.1-1.1 0-.2.1-.5.2-.7.2-.4.5-.7.9-.8-.6-.1-1.2.2-1.4.8-.2.2-.2.4-.2.7z" opacity=".2" fill="#ef9ea3"/><g id="bfee7d6a-45f0-4dc3-a3ef-81aba39724f4"><circle id="f5b7e8ee-b181-4903-8491-9472a252ac96" class="st65" cx="145.6" cy="98.8" r=".9"/></g><g id="_x32_f357ee0-2b8c-4a86-aca2-3c968993b779"><path id="_x33_49111a5-b654-448a-9f3e-ef0686aa7621" class="st43" d="M139.8 153.4l-.5-.2.6-1.1h.6l-.7 1.3z"/><path id="_x35_8dab548-4883-4c7f-98f0-f2384fb3d236" class="st43" d="M140.7 153.6l-.5-.2.7-1.3.5.1z"/></g><path class="st65" d="M144.4 110.3l-6.1-.2c-2.1-.1-4-1.2-5-3l-4.5-8.1c-.3-.6-.1-1.3.5-1.6.6-.3 1.3-.1 1.6.4l4.5 8.2c.6 1.1 1.7 1.7 2.9 1.8l6.1.2c.7 0 1.2.5 1.2 1.2.1.6-.5 1.2-1.2 1.1z"/><path class="st51" d="M144.4 110.5l-6.1-.2c-2.1-.1-4.1-1.3-5.1-3.1l-3.6-6.5c-.2-.7.2-1.5.9-1.7.5-.1 1 0 1.3.4l3.6 6.5c.6 1 1.6 1.7 2.8 1.7l6.1.2c.7-.1 1.4.5 1.5 1.2.1.7-.5 1.4-1.2 1.5h-.2z"/><path class="st65" d="M131 98.5c-.1.1-.3 0-.3-.1l-1.5-2.6c-.1-.1 0-.3.1-.3.1-.1.3 0 .3.1l1.5 2.6c.1.1 0 .2-.1.3z"/></g><path id="_x36_ca249dc-3e7a-4181-bc42-46492249c5ed" d="M47.5 201.1l-2 .4c-.9-1-2-1.8-3.1-2.5-6.8-4-17.9-4-24.6 0-1.1.7-2.2 1.5-3.1 2.5l-2-.4v2.1c0 2.6 1.7 5.2 5.1 7.1 6.8 4 17.9 4 24.6 0 3.4-2 5.1-4.6 5.1-7.1v-2.1z" fill="#e1e4f0"/><path id="_x38_f9f8183-0ce1-40c3-93ae-afc1f3cf286a" class="st43" d="M17.8 193.8c6.8-4 17.9-4 24.6 0s6.8 10.3 0 14.2-17.9 4-24.6 0-6.8-10.3 0-14.2z"/><path id="_x31_3e60727-8692-42eb-82dc-d4645e09ad4c" class="st69" d="M19.5 194.7c5.9-3.4 15.4-3.4 21.3 0s5.8 8.9 0 12.3-15.4 3.4-21.3 0-5.9-8.9 0-12.3z"/><path id="_x35_9c36081-ce8d-43d1-b062-c33541e40f66" class="st43" d="M21.2 195.9c4.9-2.8 12.9-2.8 17.8 0s4.9 7.3 0 10.1-12.9 2.8-17.8 0-4.9-7.4 0-10.1z"/><path id="_x38_faa0ed4-f9eb-411a-96db-edb0f5a07245" class="st69" d="M22.8 196.8c4.6-2.3 10-2.3 14.5 0 4 2.3 4 5.9 0 8.2-4.6 2.3-10 2.3-14.5 0-4-2.3-4-6 0-8.2z"/><path id="_x36_6d5615b-c18c-4e14-a217-f60ef9c1e5b9" class="st43" d="M24.4 198c3.6-1.6 7.6-1.6 11.2 0 3.1 1.6 3.1 4.2 0 5.8-3.6 1.6-7.6 1.6-11.2 0-3.1-1.6-3.1-4.2 0-5.8z"/><path id="_x37_96390d5-4f11-4a2b-81b9-7688d45cf8b8" class="st69" d="M26.6 199.1c2.2-1 4.7-1 6.8 0 1.9 1 1.9 2.6 0 3.5-2.2 1-4.7 1-6.8 0-1.9-.9-1.9-2.5 0-3.5z"/><path d="M30 201.3c-.4 0-.8-.4-.8-.8v-36.3c0-.4.4-.8.9-.7.4 0 .7.3.7.7v36.3c0 .5-.3.8-.8.8.1 0 .1 0 0 0z" fill="#5d6873" id="_x32_705eef3-248a-4735-a956-c834eeedbee9"/><path id="ace44495-a19c-402f-b072-6ac4a6c7f25c" class="st51" d="M30.2 167.5c8.8 4.5 17.5 8.1 17.5 8.1-3.2 6.8-17.5 8.9-17.5 8.9v-17z"/><linearGradient id="SVGID_3_" gradientUnits="userSpaceOnUse" x1="-315.47" y1="615.429" x2="-265.39" y2="615.429" gradientTransform="matrix(-1 0 0 1 -265.39 -570)"><stop offset="0" stop-color="#d2d9eb"/><stop offset=".55" stop-color="#afbbdf"/><stop offset="1" stop-color="#99a6d4"/></linearGradient><path d="M1.9 43.3l42.9-24.6c.8-.5 1.8-.4 2.5.2l2.2 1.9.6 23.2c0 1.3-.7 2.6-1.9 3.3l-19.4 11-9.9 5.7-14.2 8.5H2c-1.1 0-2-.9-2-2V46.6c0-1.4.7-2.6 1.9-3.3z" fill="url(#SVGID_3_)"/><path id="_x39_9d4b37f-55ea-45ea-8d2e-eb54e024b632" d="M50.1 22.3V44c0 1.3-.7 2.6-1.9 3.3L21.4 62.8l-2 7.4c-.3.9-1.3 1.5-2.2 1.2-.1 0-.2-.1-.3-.1l-5.4-2.7-6 3.5c-1 .6-2.3.2-2.9-.8-.2-.3-.3-.7-.3-1.1v-22c0-1.3.7-2.6 1.9-3.3l42.6-24.6c1-.6 2.3-.2 2.9.8.3.4.4.8.4 1.2z" fill="#edeff8"/><path id="_x39_bf318ef-36a5-4b84-ae32-63c2c850a51c" class="st51" d="M38.9 32.7l1.1 2.6 3.2-1.8c.1 0 .2 0 .2.1v.1l-2.1 4 .7 3.4c0 .1-.1.2-.2.3l-2.7-.3-2.8 3.5c-.1.1-.1.1-.2 0v-.1l.4-3.8-2.6-1.5V39l3.4-2 1.5-4.3h.1z"/><path id="_x35_16162be-5778-4bbd-a7dd-551741660a3b" class="st51" d="M26.5 39.9l1.2 2.6 3.2-1.8c.1 0 .2 0 .2.1v.1l-2.1 4 .6 3.4c0 .1-.1.2-.2.3l-2.7-.3-2.7 3.4c-.1.1-.1.1-.2 0v-.1l.4-3.8-2.6-1.5v-.2l3.4-2 1.5-4.3c-.1 0 0 0 0 .1.1-.1.1 0 0 0z"/><path id="_x35_9a6206f-d900-4e06-b024-76bcbc5c8090" class="st51" d="M14.2 47.1l1.2 2.6 3.2-1.8c.1 0 .2 0 .2.1v.1l-2.1 4 .6 3.4c0 .1-.1.2-.2.3l-2.7-.3-2.8 3.5c-.1.1-.1.1-.2 0v-.1l.4-3.8-2.7-1.5v-.2l3.4-2 1.5-4.3c0-.1.1-.1.2 0 0-.1 0-.1 0 0z"/></svg>